<svg version="1.1" id="Layer_1" xmlns="http://www.w3.org/2000/svg" xmlns:xlink="http://www.w3.org/1999/xlink" x="0px" y="0px"
	 width="100%" viewBox="0 0 410 150" enable-background="new 0 0 410 150" xml:space="preserve">
<path fill="#000000" opacity="1.000000" stroke="none" 
	d="
M1.000000,23.000000 
	C1.000000,15.669545 1.000000,8.339090 1.000000,1.006477 
	C137.610138,1.004318 274.220276,1.004318 410.915222,1.004318 
	C410.915222,50.923714 410.915222,100.847626 410.915222,150.885773 
	C274.333374,150.885773 137.666702,150.885773 1.000016,150.887695 
	C1.000000,110.238853 1.000000,69.588081 1.238520,28.149349 
	C3.175374,28.842020 4.873707,30.322659 6.101790,31.393322 
	C8.419881,30.169489 11.461660,27.799700 12.128197,28.343145 
	C15.106945,30.771803 18.581244,33.633823 19.743500,37.062435 
	C23.955502,49.487659 27.334379,62.196556 30.975380,74.813484 
	C32.464603,79.973999 34.521320,84.570801 40.099789,86.604965 
	C43.755905,87.938156 47.322205,89.522339 50.906979,91.045326 
	C55.552052,93.018776 59.901836,95.209930 60.135925,101.273743 
	C60.235954,103.865044 60.808247,106.438110 61.293106,109.419685 
	C64.775574,110.376671 68.130882,110.933441 72.109024,111.593552 
	C72.098335,111.625763 72.548058,110.267822 72.999298,108.910385 
	C75.684128,100.833763 77.628517,92.408104 81.231392,84.764160 
	C86.380882,73.838913 93.375572,63.773239 98.375549,52.791092 
	C101.943695,44.953899 103.669716,36.251194 105.898247,27.849958 
	C106.449272,25.772671 107.000946,22.628723 102.976791,22.276283 
	C103.017815,19.386946 103.017815,16.934954 103.017815,14.245876 
	C85.931915,14.245876 69.279716,14.245876 52.627510,14.245876 
	C64.053581,20.326855 71.337555,29.447561 74.973701,41.783146 
	C78.727585,54.518127 76.550186,66.146347 69.291733,76.768600 
	C68.058365,73.589981 67.046898,70.760910 66.025040,67.962990 
	C66.014648,67.994148 66.080338,67.995209 66.048721,67.631821 
	C65.675797,66.451607 65.334488,65.634796 64.977692,64.434731 
	C63.632778,59.714306 62.558174,55.278500 60.925068,51.058849 
	C56.425919,39.433880 52.715275,27.438187 41.985367,19.336973 
	C31.953501,11.762790 13.021470,11.514032 4.206989,21.216000 
	C3.427640,22.073818 2.082406,22.417515 1.000000,23.000000 
M139.828903,112.559441 
	C139.884781,97.709335 139.952408,82.859238 139.958771,68.009109 
	C139.959061,67.326859 139.408722,66.644386 139.017151,65.205933 
	C138.739853,60.183689 134.822586,59.162209 131.061707,58.006363 
	C124.659485,56.038750 118.246071,54.107533 111.760788,51.324989 
	C111.174141,52.451385 110.082832,53.574837 110.076233,54.704624 
	C109.969627,72.947052 109.983299,91.190353 110.043152,109.433205 
	C110.046875,110.567902 110.658432,111.700607 111.917000,112.973137 
	C120.946938,112.926888 129.976883,112.880638 139.828903,112.559441 
M343.096222,40.408932 
	C338.802032,41.672184 334.507874,42.935436 330.239746,44.191025 
	C328.728333,35.710976 325.920044,35.605011 316.891327,34.059692 
	C311.021301,33.055000 305.601562,31.904604 303.980225,24.969021 
	C303.779114,24.108774 302.729950,23.446775 302.073761,22.692913 
	C301.715942,22.881372 301.358124,23.069832 301.000305,23.258291 
	C301.000305,25.062618 301.000275,26.866945 301.000275,28.671272 
	C301.000244,50.331383 301.028503,71.991600 300.945343,93.651390 
	C300.938873,95.334724 300.654846,98.000954 299.637512,98.519859 
	C295.950714,100.400398 291.954559,102.568138 287.969177,102.799164 
	C276.798279,103.446724 262.766815,92.305496 259.031860,80.496941 
	C260.687897,80.004723 262.361053,79.532555 264.018524,79.010666 
	C273.885956,75.903664 283.419159,72.135361 290.882568,64.587059 
	C297.724792,57.667015 296.919128,48.470821 287.654510,43.928242 
	C279.067535,39.717926 270.106903,39.236870 260.866791,40.985363 
	C246.978409,43.613430 236.749329,50.778027 232.218979,64.598228 
	C227.559601,78.812035 229.826797,92.116211 240.444946,102.682121 
	C252.605408,114.782738 268.079407,116.121536 283.968781,112.341522 
	C289.868378,110.938034 295.299469,107.565269 301.267151,104.948967 
	C301.267151,107.542015 301.267151,110.134605 301.267151,112.619049 
	C311.040985,112.619049 320.429749,112.619049 330.200165,112.619049 
	C330.200165,92.709122 330.200165,73.177299 330.200165,53.645477 
	C332.759064,54.850037 335.167816,56.437775 335.552917,58.418873 
	C336.412140,62.838768 336.460846,67.454468 336.473846,71.991440 
	C336.492432,78.469673 335.019714,85.177002 336.236633,91.384048 
	C339.633087,108.707893 354.909241,114.795891 369.790619,112.902000 
	C375.684235,112.151955 381.326935,109.429855 386.870392,107.673302 
	C387.247437,114.425110 385.682404,119.917610 381.178772,126.489525 
	C377.311798,132.132401 370.431915,132.877991 365.700195,128.167542 
	C363.220795,125.699303 360.621826,123.338837 358.283905,120.743217 
	C352.492798,114.313904 336.662659,113.847107 330.757111,121.552284 
	C325.430725,128.501801 324.223328,136.299332 324.147186,144.518005 
	C324.135345,145.796722 325.690491,147.089951 327.002716,149.122604 
	C329.841705,137.441299 334.531464,136.074921 342.831207,143.350281 
	C343.330994,143.788376 343.741119,144.329926 344.246918,144.759918 
	C350.916748,150.430328 361.744171,150.220856 368.224823,146.298920 
	C377.414368,140.737625 383.068604,132.185654 387.933960,123.073769 
	C397.221283,105.680420 402.614441,86.940041 405.878998,67.601097 
	C407.185089,59.863995 407.752899,51.977253 405.018707,44.267056 
	C404.207062,41.978210 403.163391,40.871017 400.505707,40.934361 
	C392.679199,41.120903 384.845367,41.000542 377.014404,41.000370 
	C373.498627,41.000294 369.982849,41.000359 365.724976,41.000359 
	C368.300140,43.248199 370.309631,44.523720 371.695679,46.288788 
	C381.676544,58.998589 385.973450,73.764336 385.795959,89.650536 
	C385.728973,95.650787 384.763123,102.034225 379.174622,106.446465 
	C374.132721,110.427155 366.380890,109.730537 365.352081,104.385757 
	C364.306519,98.954048 363.964294,93.253395 364.277130,87.724998 
	C364.748199,79.399353 366.855560,71.118614 366.829651,62.823269 
	C366.786591,49.019028 359.705658,38.998432 343.096222,40.408932 
M222.097076,91.496010 
	C228.143402,79.251671 226.832397,66.809212 219.392258,56.373692 
	C208.635880,41.286839 193.024033,37.139545 174.999695,42.310715 
	C174.999695,38.538994 174.999725,35.046684 174.999695,31.554379 
	C174.999634,23.979525 174.999619,23.979525 171.554779,23.288956 
	C169.802841,30.679338 166.548981,33.248444 157.989456,33.999527 
	C148.289810,34.850647 146.000305,37.270084 146.000305,46.668961 
	C146.000305,66.977211 146.000305,87.285469 146.000290,107.593719 
	C146.000290,109.331276 146.000290,111.068832 146.000290,112.806389 
	C146.505447,113.003426 147.010605,113.200462 147.515762,113.397499 
	C148.462097,112.000221 149.538116,110.672523 150.331772,109.193329 
	C153.380875,103.510445 157.870850,101.355591 163.900146,103.520462 
	C167.995087,104.990776 171.891861,107.113426 175.700211,109.258621 
	C181.811127,112.700836 187.874771,115.307205 195.227661,113.417717 
	C207.355911,110.301094 215.875488,102.886848 222.097076,91.496010 
M141.165161,33.595810 
	C138.854095,25.022898 130.892212,20.364033 120.639526,22.089445 
	C114.641861,23.098785 110.181244,26.259598 108.652351,32.736416 
	C107.248360,38.684155 107.666283,44.166946 112.179016,48.596249 
	C116.922867,53.252399 128.227280,54.857212 133.789169,51.606091 
	C140.391037,47.747078 143.112320,41.856300 141.165161,33.595810 
z"/>
<path fill="#3B2CFF" opacity="1.000000" stroke="none" 
	d="
M61.165951,109.019463 
	C60.808247,106.438110 60.235954,103.865044 60.135925,101.273743 
	C59.901836,95.209930 55.552052,93.018776 50.906979,91.045326 
	C47.322205,89.522339 43.755905,87.938156 40.099789,86.604965 
	C34.521320,84.570801 32.464603,79.973999 30.975380,74.813484 
	C27.334379,62.196556 23.955502,49.487659 19.743500,37.062435 
	C18.581244,33.633823 15.106945,30.771803 12.128197,28.343145 
	C11.461660,27.799700 8.419881,30.169489 6.101790,31.393322 
	C4.873707,30.322659 3.175374,28.842020 1.238520,27.680691 
	C1.000000,26.611111 1.000000,25.222221 1.000000,23.416666 
	C2.082406,22.417515 3.427640,22.073818 4.206989,21.216000 
	C13.021470,11.514032 31.953501,11.762790 41.985367,19.336973 
	C52.715275,27.438187 56.425919,39.433880 60.925068,51.058849 
	C62.558174,55.278500 63.632778,59.714306 64.770699,64.636253 
	C65.079567,66.145752 65.579956,67.070480 66.080338,67.995209 
	C66.080338,67.995209 66.014648,67.994148 65.908485,68.386185 
	C66.321114,72.251854 66.839905,75.725471 67.535149,80.380508 
	C68.623375,78.586105 69.068504,77.852127 69.513634,77.118141 
	C76.550186,66.146347 78.727585,54.518127 74.973701,41.783146 
	C71.337555,29.447561 64.053581,20.326855 52.627510,14.245876 
	C69.279716,14.245876 85.931915,14.245876 103.017815,14.245876 
	C103.017815,16.934954 103.017815,19.386946 102.833382,22.654972 
	C99.723305,40.336315 92.392532,55.415524 83.501663,70.166878 
	C82.282661,72.254738 81.309219,74.135254 80.432648,76.059883 
	C77.546646,82.396515 74.695724,88.749138 71.612991,95.390907 
	C70.460228,99.963737 69.525803,104.241264 68.482002,109.019463 
	C66.012917,109.019463 63.589436,109.019463 61.165951,109.019463 
M34.991867,22.003023 
	C34.991867,22.003023 34.959839,22.072287 35.661713,21.494991 
	C28.939211,16.941757 18.084311,17.350231 11.391720,22.455399 
	C13.916964,23.297634 16.401516,24.126299 19.289513,25.515844 
	C21.136909,28.970989 22.984304,32.426136 24.977734,36.684258 
	C27.753756,46.337467 30.404579,56.029228 33.360203,65.627129 
	C34.774204,70.218864 36.766006,74.632668 38.863564,79.764023 
	C40.575108,80.772575 42.170212,82.171104 44.018143,82.722893 
	C52.493282,85.253548 61.086708,87.473663 65.650261,96.737106 
	C65.945251,94.601845 65.403008,93.029549 64.811508,91.476006 
	C64.300156,90.132988 63.344791,88.838554 63.249035,87.476021 
	C61.993443,69.609940 55.932587,52.976025 49.417118,36.620392 
	C47.287525,31.274525 41.967972,27.199415 37.485756,22.086887 
	C36.635841,22.076290 35.785927,22.065693 34.991867,22.003023 
M97.243301,18.483515 
	C87.776566,18.349857 78.309891,18.207977 68.842712,18.126024 
	C68.584076,18.123787 68.319839,18.767014 68.025848,19.789358 
	C69.243523,20.910540 70.461189,22.031719 71.943794,23.804953 
	C74.242401,28.288212 76.541008,32.771473 78.987625,38.019997 
	C80.995735,46.368660 83.502113,54.672993 81.720070,63.650192 
	C82.863358,61.224644 84.006653,58.799095 85.667114,55.873116 
	C91.260513,45.240578 96.050453,34.328434 97.704247,21.791304 
	C97.754684,20.860855 97.805130,19.930407 97.243301,18.483515 
z"/>
<path fill="#392AFF" opacity="1.000000" stroke="none" 
	d="
M343.500305,40.235970 
	C359.705658,38.998432 366.786591,49.019028 366.829651,62.823269 
	C366.855560,71.118614 364.748199,79.399353 364.277130,87.724998 
	C363.964294,93.253395 364.306519,98.954048 365.352081,104.385757 
	C366.380890,109.730537 374.132721,110.427155 379.174622,106.446465 
	C384.763123,102.034225 385.728973,95.650787 385.795959,89.650536 
	C385.973450,73.764336 381.676544,58.998589 371.695679,46.288788 
	C370.309631,44.523720 368.300140,43.248199 365.724976,41.000359 
	C369.982849,41.000359 373.498627,41.000294 377.014404,41.000370 
	C384.845367,41.000542 392.679199,41.120903 400.505707,40.934361 
	C403.163391,40.871017 404.207062,41.978210 405.018707,44.267056 
	C407.752899,51.977253 407.185089,59.863995 405.878998,67.601097 
	C402.614441,86.940041 397.221283,105.680420 387.933960,123.073769 
	C383.068604,132.185654 377.414368,140.737625 368.224823,146.298920 
	C361.744171,150.220856 350.916748,150.430328 344.246918,144.759918 
	C343.741119,144.329926 343.330994,143.788376 342.831207,143.350281 
	C334.531464,136.074921 329.841705,137.441299 327.002716,149.122604 
	C325.690491,147.089951 324.135345,145.796722 324.147186,144.518005 
	C324.223328,136.299332 325.430725,128.501801 330.757111,121.552284 
	C336.662659,113.847107 352.492798,114.313904 358.283905,120.743217 
	C360.621826,123.338837 363.220795,125.699303 365.700195,128.167542 
	C370.431915,132.877991 377.311798,132.132401 381.178772,126.489525 
	C385.682404,119.917610 387.247437,114.425110 386.870392,107.673302 
	C381.326935,109.429855 375.684235,112.151955 369.790619,112.902000 
	C354.909241,114.795891 339.633087,108.707893 336.236633,91.384048 
	C335.019714,85.177002 336.492432,78.469673 336.473846,71.991440 
	C336.460846,67.454468 336.412140,62.838768 335.552917,58.418873 
	C335.167816,56.437775 332.759064,54.850037 330.200165,53.645477 
	C330.200165,73.177299 330.200165,92.709122 330.200165,112.619049 
	C320.429749,112.619049 311.040985,112.619049 301.267151,112.619049 
	C301.267151,110.134605 301.267151,107.542015 301.267151,104.948967 
	C295.299469,107.565269 289.868378,110.938034 283.968781,112.341522 
	C268.079407,116.121536 252.605408,114.782738 240.444946,102.682121 
	C229.826797,92.116211 227.559601,78.812035 232.218979,64.598228 
	C236.749329,50.778027 246.978409,43.613430 260.866791,40.985363 
	C270.106903,39.236870 279.067535,39.717926 287.654510,43.928242 
	C296.919128,48.470821 297.724792,57.667015 290.882568,64.587059 
	C283.419159,72.135361 273.885956,75.903664 264.018524,79.010666 
	C262.361053,79.532555 260.687897,80.004723 259.031860,80.496941 
	C262.766815,92.305496 276.798279,103.446724 287.969177,102.799164 
	C291.954559,102.568138 295.950714,100.400398 299.637512,98.519859 
	C300.654846,98.000954 300.938873,95.334724 300.945343,93.651390 
	C301.028503,71.991600 301.000244,50.331383 301.000275,28.671272 
	C301.000275,26.866945 301.000305,25.062618 301.000305,23.258291 
	C301.358124,23.069832 301.715942,22.881372 302.073761,22.692913 
	C302.729950,23.446775 303.779114,24.108774 303.980225,24.969021 
	C305.601562,31.904604 311.021301,33.055000 316.891327,34.059692 
	C325.920044,35.605011 328.728333,35.710976 330.239746,44.191025 
	C334.507874,42.935436 338.802032,41.672184 343.500305,40.235970 
M252.240082,46.290024 
	C250.827072,48.625965 248.476532,50.844910 248.167831,53.318661 
	C247.002243,62.659088 252.018524,70.118919 256.427368,77.511803 
	C257.403442,77.311111 258.192291,77.177773 258.966431,76.985252 
	C266.164764,75.195129 274.283203,67.885551 271.786377,59.512466 
	C269.229462,50.937817 262.134216,45.897865 252.240082,46.290024 
z"/>
<path fill="#382AFF" opacity="1.000000" stroke="none" 
	d="
M222.022583,91.875748 
	C215.875488,102.886848 207.355911,110.301094 195.227661,113.417717 
	C187.874771,115.307205 181.811127,112.700836 175.700211,109.258621 
	C171.891861,107.113426 167.995087,104.990776 163.900146,103.520462 
	C157.870850,101.355591 153.380875,103.510445 150.331772,109.193329 
	C149.538116,110.672523 148.462097,112.000221 147.515762,113.397499 
	C147.010605,113.200462 146.505447,113.003426 146.000290,112.806389 
	C146.000290,111.068832 146.000290,109.331276 146.000290,107.593719 
	C146.000305,87.285469 146.000305,66.977211 146.000305,46.668961 
	C146.000305,37.270084 148.289810,34.850647 157.989456,33.999527 
	C166.548981,33.248444 169.802841,30.679338 171.554779,23.288956 
	C174.999619,23.979525 174.999634,23.979525 174.999695,31.554379 
	C174.999725,35.046684 174.999695,38.538994 174.999695,42.310715 
	C193.024033,37.139545 208.635880,41.286839 219.392258,56.373692 
	C226.832397,66.809212 228.143402,79.251671 222.022583,91.875748 
M174.339981,54.699749 
	C174.251755,69.202042 174.154449,83.704308 174.107849,98.206741 
	C174.105957,98.797348 174.581726,99.389503 175.126297,100.606613 
	C176.533798,102.018898 177.746658,103.735695 179.386795,104.784019 
	C183.607529,107.481758 187.804565,110.331245 193.366135,108.051537 
	C198.511490,105.942451 200.297836,102.263229 201.185623,96.881546 
	C202.711639,87.631050 199.977066,79.185638 197.986328,70.521889 
	C195.967621,61.736374 191.979507,53.990265 185.257706,47.931099 
	C183.598770,46.435699 180.115417,44.654037 179.001907,45.373558 
	C177.045456,46.637764 176.226761,49.708481 175.033646,52.074100 
	C174.756454,52.623703 174.889664,53.380299 174.339981,54.699749 
z"/>
<path fill="#3829FF" opacity="1.000000" stroke="none" 
	d="
M111.837357,52.161030 
	C118.246071,54.107533 124.659485,56.038750 131.061707,58.006363 
	C134.822586,59.162209 138.739853,60.183689 139.016541,66.052063 
	C139.012909,82.210266 139.009857,97.522324 139.006821,112.834389 
	C129.976883,112.880638 120.946938,112.926888 111.454262,112.445740 
	C110.993355,93.926353 110.969841,75.934288 111.033821,57.942528 
	C111.040672,56.014435 111.557243,54.088154 111.837357,52.161030 
z"/>
<path fill="#392AFF" opacity="1.000000" stroke="none" 
	d="
M141.440536,33.907524 
	C143.112320,41.856300 140.391037,47.747078 133.789169,51.606091 
	C128.227280,54.857212 116.922867,53.252399 112.179016,48.596249 
	C107.666283,44.166946 107.248360,38.684155 108.652351,32.736416 
	C110.181244,26.259598 114.641861,23.098785 120.639526,22.089445 
	C130.892212,20.364033 138.854095,25.022898 141.440536,33.907524 
z"/>
<path fill="#9B93FF" opacity="1.000000" stroke="none" 
	d="
M61.293106,109.419685 
	C63.589436,109.019463 66.012917,109.019463 68.482002,109.019463 
	C69.525803,104.241264 70.460228,99.963737 71.677307,95.728577 
	C72.105370,96.022469 72.250778,96.273994 72.396187,96.525513 
	C72.586334,96.368507 72.858665,96.250626 72.954735,96.048836 
	C76.413963,88.782745 79.914688,81.535164 83.245461,74.210358 
	C83.808037,72.973183 83.628342,71.398491 83.791595,69.979736 
	C92.392532,55.415524 99.723305,40.336315 102.792358,23.092319 
	C107.000946,22.628723 106.449272,25.772671 105.898247,27.849958 
	C103.669716,36.251194 101.943695,44.953899 98.375549,52.791092 
	C93.375572,63.773239 86.380882,73.838913 81.231392,84.764160 
	C77.628517,92.408104 75.684128,100.833763 72.999298,108.910385 
	C72.548058,110.267822 72.098335,111.625763 72.109024,111.593552 
	C68.130882,110.933441 64.775574,110.376671 61.293106,109.419685 
z"/>
<path fill="#776DFF" opacity="1.000000" stroke="none" 
	d="
M111.799072,51.743011 
	C111.557243,54.088154 111.040672,56.014435 111.033821,57.942528 
	C110.969841,75.934288 110.993355,93.926353 110.989365,112.376282 
	C110.658432,111.700607 110.046875,110.567902 110.043152,109.433205 
	C109.983299,91.190353 109.969627,72.947052 110.076233,54.704624 
	C110.082832,53.574837 111.174141,52.451385 111.799072,51.743011 
z"/>
<path fill="#9890FF" opacity="1.000000" stroke="none" 
	d="
M139.417862,112.696915 
	C139.009857,97.522324 139.012909,82.210266 139.065399,66.430107 
	C139.408722,66.644386 139.959061,67.326859 139.958771,68.009109 
	C139.952408,82.859238 139.884781,97.709335 139.417862,112.696915 
z"/>
<path fill="#9189FF" opacity="1.000000" stroke="none" 
	d="
M69.291733,76.768600 
	C69.068504,77.852127 68.623375,78.586105 67.535149,80.380508 
	C66.839905,75.725471 66.321114,72.251854 65.918884,68.355026 
	C67.046898,70.760910 68.058365,73.589981 69.291733,76.768600 
z"/>
<path fill="#9189FF" opacity="1.000000" stroke="none" 
	d="
M66.048721,67.631821 
	C65.579956,67.070480 65.079567,66.145752 64.786179,65.019501 
	C65.334488,65.634796 65.675797,66.451607 66.048721,67.631821 
z"/>
<path fill="#9B93FF" opacity="1.000000" stroke="none" 
	d="
M24.831699,35.881283 
	C22.984304,32.426136 21.136909,28.970989 19.279396,24.887970 
	C24.499464,23.530825 29.729652,22.801556 34.959839,22.072287 
	C34.959839,22.072287 34.991867,22.003023 35.122345,22.362755 
	C36.204311,22.662706 37.155804,22.602926 38.107292,22.543146 
	C41.967972,27.199415 47.287525,31.274525 49.417118,36.620392 
	C55.932587,52.976025 61.993443,69.609940 63.249035,87.476021 
	C63.344791,88.838554 64.300156,90.132988 64.811508,91.476006 
	C65.403008,93.029549 65.945251,94.601845 65.650261,96.737106 
	C61.086708,87.473663 52.493282,85.253548 44.018143,82.722893 
	C42.170212,82.171104 40.575108,80.772575 38.899723,79.070206 
	C35.230614,65.421417 31.579569,52.450329 27.741283,39.534882 
	C27.330017,38.151012 25.827826,37.091343 24.831699,35.881283 
z"/>
<path fill="#9B93FF" opacity="1.000000" stroke="none" 
	d="
M97.381119,22.212452 
	C96.050453,34.328434 91.260513,45.240578 85.343445,55.656227 
	C83.381310,49.421841 81.751175,43.401993 80.056633,37.400326 
	C80.013992,37.249294 79.261208,37.298767 78.839615,37.254730 
	C76.541008,32.771473 74.242401,28.288212 72.308289,23.410965 
	C74.502419,23.010786 76.333992,23.056757 78.161346,22.988970 
	C84.568718,22.751293 90.974648,22.474434 97.381119,22.212452 
z"/>
<path fill="#000000" opacity="1.000000" stroke="none" 
	d="
M97.542679,22.001877 
	C90.974648,22.474434 84.568718,22.751293 78.161346,22.988970 
	C76.333992,23.056757 74.502419,23.010786 72.175819,23.084938 
	C70.461189,22.031719 69.243523,20.910540 68.507393,19.402554 
	C78.611145,19.010485 88.233360,19.005222 97.855568,18.999958 
	C97.805130,19.930407 97.754684,20.860855 97.542679,22.001877 
z"/>
<path fill="#000000" opacity="1.000000" stroke="none" 
	d="
M24.904716,36.282768 
	C25.827826,37.091343 27.330017,38.151012 27.741283,39.534882 
	C31.579569,52.450329 35.230614,65.421417 38.715996,78.751724 
	C36.766006,74.632668 34.774204,70.218864 33.360203,65.627129 
	C30.404579,56.029228 27.753756,46.337467 24.904716,36.282768 
z"/>
<path fill="#000000" opacity="1.000000" stroke="none" 
	d="
M35.310776,21.783638 
	C29.729652,22.801556 24.499464,23.530825 19.077671,24.607529 
	C16.401516,24.126299 13.916964,23.297634 11.391720,22.455399 
	C18.084311,17.350231 28.939211,16.941757 35.310776,21.783638 
z"/>
<path fill="#000000" opacity="1.000000" stroke="none" 
	d="
M78.913620,37.637360 
	C79.261208,37.298767 80.013992,37.249294 80.056633,37.400326 
	C81.751175,43.401993 83.381310,49.421841 85.084854,55.906441 
	C84.006653,58.799095 82.863358,61.224644 81.720070,63.650192 
	C83.502113,54.672993 80.995735,46.368660 78.913620,37.637360 
z"/>
<path fill="#000000" opacity="1.000000" stroke="none" 
	d="
M83.501663,70.166878 
	C83.628342,71.398491 83.808037,72.973183 83.245461,74.210358 
	C79.914688,81.535164 76.413963,88.782745 72.954735,96.048836 
	C72.858665,96.250626 72.586334,96.368507 72.396187,96.525513 
	C72.250778,96.273994 72.105370,96.022469 71.895645,95.433281 
	C74.695724,88.749138 77.546646,82.396515 80.432648,76.059883 
	C81.309219,74.135254 82.282661,72.254738 83.501663,70.166878 
z"/>
<path fill="#685DFF" opacity="1.000000" stroke="none" 
	d="
M97.549438,18.741737 
	C88.233360,19.005222 78.611145,19.010485 68.523575,19.062498 
	C68.319839,18.767014 68.584076,18.123787 68.842712,18.126024 
	C78.309891,18.207977 87.776566,18.349857 97.549438,18.741737 
z"/>
<path fill="#000000" opacity="1.000000" stroke="none" 
	d="
M37.796524,22.315018 
	C37.155804,22.602926 36.204311,22.662706 35.094418,22.388790 
	C35.785927,22.065693 36.635841,22.076290 37.796524,22.315018 
z"/>
<path fill="#000000" opacity="1.000000" stroke="none" 
	d="
M252.647552,46.172302 
	C262.134216,45.897865 269.229462,50.937817 271.786377,59.512466 
	C274.283203,67.885551 266.164764,75.195129 258.966431,76.985252 
	C258.192291,77.177773 257.403442,77.311111 256.427368,77.511803 
	C252.018524,70.118919 247.002243,62.659088 248.167831,53.318661 
	C248.476532,50.844910 250.827072,48.625965 252.647552,46.172302 
z"/>
<path fill="#000000" opacity="1.000000" stroke="none" 
	d="
M174.834030,54.041649 
	C174.889664,53.380299 174.756454,52.623703 175.033646,52.074100 
	C176.226761,49.708481 177.045456,46.637764 179.001907,45.373558 
	C180.115417,44.654037 183.598770,46.435699 185.257706,47.931099 
	C191.979507,53.990265 195.967621,61.736374 197.986328,70.521889 
	C199.977066,79.185638 202.711639,87.631050 201.185623,96.881546 
	C200.297836,102.263229 198.511490,105.942451 193.366135,108.051537 
	C187.804565,110.331245 183.607529,107.481758 179.386795,104.784019 
	C177.746658,103.735695 176.533798,102.018898 175.052155,99.830048 
	C174.930023,84.049530 174.882019,69.045593 174.834030,54.041649 
z"/>
<path fill="#8279FF" opacity="1.000000" stroke="none" 
	d="
M174.587006,54.370697 
	C174.882019,69.045593 174.930023,84.049530 174.906479,99.517204 
	C174.581726,99.389503 174.105957,98.797348 174.107849,98.206741 
	C174.154449,83.704308 174.251755,69.202042 174.587006,54.370697 
z"/>
</svg>