<svg id="svg" version="1.1" xmlns="http://www.w3.org/2000/svg" xmlns:xlink="http://www.w3.org/1999/xlink" width="400" height="400" viewBox="0, 0, 400,400"><g id="svgg"><path id="path0" d="M0.000 200.000 L 0.000 400.000 200.000 400.000 L 400.000 400.000 400.000 200.000 L 400.000 0.000 200.000 0.000 L 0.000 0.000 0.000 200.000 M64.800 158.192 C 74.648 160.797,82.697 170.356,87.558 185.218 C 90.658 194.696,92.721 201.145,93.182 202.800 C 93.458 203.790,93.845 205.013,94.042 205.519 C 94.239 206.024,94.400 206.789,94.400 207.219 C 94.400 208.802,95.166 207.907,96.951 204.237 C 104.729 188.249,98.740 169.811,82.700 160.367 C 78.579 157.941,78.248 157.982,101.100 158.096 L 121.800 158.200 121.800 161.395 L 121.800 164.590 123.000 164.805 L 124.200 165.020 124.149 168.174 C 124.079 172.454,122.518 179.293,120.400 184.600 C 120.224 185.040,119.851 186.030,119.570 186.800 C 117.530 192.391,112.731 201.698,107.609 210.000 C 103.337 216.923,100.770 222.507,99.148 228.400 C 98.302 231.475,97.600 235.070,97.600 236.324 C 97.600 238.188,94.688 238.166,94.473 236.300 C 94.347 235.203,94.337 235.200,91.181 235.200 C 87.566 235.200,87.835 235.522,87.411 230.680 C 86.873 224.528,85.435 222.588,79.961 220.631 C 73.431 218.296,68.042 215.298,66.366 213.070 C 64.669 210.811,64.962 211.661,60.389 195.727 C 57.384 185.256,54.684 176.672,53.398 173.500 C 53.025 172.579,51.647 172.625,50.400 173.600 C 48.200 175.321,46.285 173.199,48.217 171.182 C 49.977 169.345,48.078 169.570,46.004 171.444 C 44.100 173.165,43.864 173.105,41.462 170.293 C 39.136 167.571,39.119 167.743,42.017 164.645 C 47.734 158.534,56.601 156.022,64.800 158.192 M56.800 162.253 C 53.413 162.634,49.179 164.174,49.854 164.778 C 51.394 166.158,54.263 166.509,56.631 165.607 C 58.555 164.874,59.847 164.699,63.503 164.675 C 65.979 164.659,67.869 164.514,67.703 164.354 C 66.501 163.198,59.829 161.912,56.800 162.253 M94.626 162.758 C 94.504 162.955,94.718 163.500,95.102 163.969 C 96.124 165.217,116.893 165.103,117.134 163.848 C 117.214 163.434,117.036 162.942,116.739 162.754 C 116.018 162.297,94.908 162.301,94.626 162.758 M142.480 164.450 C 157.094 167.550,156.608 187.451,141.855 190.020 C 132.715 191.611,125.408 185.916,125.408 177.200 C 125.408 168.237,133.135 162.467,142.480 164.450 M179.108 173.140 C 179.209 180.676,179.268 181.258,179.908 180.988 C 184.673 178.986,184.507 179.020,189.400 179.046 C 221.733 179.221,231.624 218.929,203.400 235.251 C 195.515 239.811,188.047 239.711,179.910 234.938 C 167.984 227.941,162.309 228.259,159.060 236.106 C 158.362 237.791,157.672 238.205,156.187 237.832 L 155.175 237.578 155.287 208.689 C 155.412 176.593,155.256 178.394,158.100 176.270 C 159.722 175.058,161.153 174.621,166.200 173.794 C 172.661 172.735,174.936 171.242,175.480 167.704 C 175.853 165.281,176.285 164.737,177.727 164.877 L 179.000 165.000 179.108 173.140 M282.697 165.300 C 282.914 165.575,283.188 166.557,283.305 167.481 C 283.768 171.125,286.165 172.754,292.600 173.799 C 300.231 175.038,302.831 176.665,303.416 180.569 C 303.734 182.689,303.598 182.621,305.544 181.628 C 312.880 177.886,321.738 178.036,326.736 181.987 C 332.703 186.704,334.222 194.659,332.007 209.600 C 329.239 228.268,331.584 235.758,339.527 233.620 C 352.591 230.102,347.997 192.196,333.240 181.748 C 330.550 179.843,330.795 179.807,347.154 179.695 L 362.441 179.590 363.187 181.295 C 367.695 191.591,362.106 220.627,351.382 242.620 C 340.108 265.744,326.275 272.792,313.084 262.134 C 306.589 256.886,302.676 257.568,301.805 264.098 C 301.507 266.331,299.989 267.200,298.904 265.759 C 298.138 264.742,298.442 255.942,299.356 252.668 C 303.698 237.110,318.279 234.455,329.877 247.111 C 333.720 251.305,335.261 252.202,337.937 251.800 C 343.489 250.968,347.003 245.743,348.421 236.213 C 348.985 232.421,348.822 231.868,347.498 233.100 C 339.377 240.659,322.215 239.799,313.777 231.409 C 307.773 225.439,306.195 218.756,307.842 206.268 C 309.031 197.249,307.349 190.400,303.946 190.400 C 303.755 190.400,303.600 200.967,303.600 213.957 C 303.600 235.069,303.534 237.540,302.967 237.757 C 302.142 238.074,281.058 238.074,280.233 237.757 C 279.729 237.564,279.600 236.864,279.600 234.324 C 279.600 232.569,279.465 231.193,279.300 231.267 C 279.135 231.341,277.740 232.230,276.200 233.243 C 256.818 245.994,228.035 236.344,223.800 215.674 C 219.234 193.395,236.731 175.983,260.491 179.161 C 284.833 182.416,279.483 201.580,251.817 210.232 C 245.991 212.054,246.243 211.603,248.859 215.518 C 257.596 228.593,269.058 232.652,278.420 225.986 L 279.600 225.146 279.600 195.605 C 279.600 179.358,279.709 165.781,279.843 165.433 C 280.134 164.675,282.130 164.582,282.697 165.300 M103.620 179.600 C 103.628 179.930,103.821 181.010,104.050 182.000 C 104.278 182.990,104.585 186.680,104.732 190.200 L 105.000 196.600 106.149 194.416 C 107.333 192.166,107.294 189.480,106.021 185.600 C 105.840 185.050,105.453 183.790,105.159 182.800 C 104.531 180.681,103.598 178.742,103.620 179.600 M61.120 180.214 C 61.000 180.333,61.341 181.909,61.877 183.716 C 62.413 185.522,63.204 188.310,63.635 189.912 C 65.772 197.866,68.905 208.245,69.276 208.600 C 69.851 209.152,69.534 207.431,68.241 203.000 C 67.664 201.020,66.993 198.680,66.749 197.800 C 66.506 196.920,66.173 195.750,66.009 195.200 C 65.723 194.239,65.526 193.557,64.392 189.600 C 63.151 185.268,61.319 180.014,61.120 180.214 M181.496 184.034 C 179.498 185.198,179.420 186.012,179.285 207.157 L 179.158 226.914 181.397 229.082 C 190.613 238.009,200.002 233.876,199.999 220.896 C 199.994 202.340,188.700 179.839,181.496 184.034 M241.380 184.563 C 239.710 185.290,238.089 187.321,237.749 189.112 C 236.864 193.771,243.003 208.713,245.725 208.523 C 248.990 208.294,254.194 204.486,255.671 201.245 C 259.185 193.531,248.752 181.352,241.380 184.563 M129.759 188.944 C 132.393 190.677,134.744 191.428,140.456 192.360 C 147.352 193.485,149.464 194.631,150.620 197.874 C 151.498 200.334,151.448 237.419,150.567 237.757 C 149.742 238.074,128.658 238.074,127.833 237.757 C 127.179 237.506,126.807 187.600,127.459 187.600 C 127.601 187.600,128.636 188.205,129.759 188.944 M104.300 207.062 C 101.000 212.360,97.164 220.951,97.232 222.891 C 97.251 223.447,97.340 223.567,97.461 223.200 C 98.015 221.518,100.908 215.424,103.443 210.600 C 105.477 206.728,105.770 206.037,105.496 205.763 C 105.365 205.632,104.827 206.216,104.300 207.062 " stroke="none" fill="#fbfbfc" fill-rule="evenodd"></path><path id="path1" d="M55.200 158.381 C 50.286 158.956,45.770 161.335,42.388 165.129 C 39.994 167.815,40.008 167.621,42.037 170.044 C 43.950 172.329,44.272 172.395,45.781 170.819 C 51.076 165.294,54.623 171.441,61.812 198.600 C 65.677 213.202,67.218 215.193,77.254 218.544 C 85.199 221.196,87.338 223.428,87.857 229.600 C 87.958 230.810,88.130 232.385,88.239 233.100 L 88.436 234.400 91.418 234.400 L 94.400 234.400 94.400 233.231 C 94.400 229.029,97.726 217.575,100.333 212.800 C 102.730 208.409,105.132 204.347,107.209 201.169 C 109.638 197.454,114.271 188.297,116.404 183.000 C 117.685 179.816,118.753 176.653,119.509 173.800 C 119.742 172.920,120.139 171.480,120.391 170.600 C 120.644 169.720,120.955 166.615,121.082 163.700 L 121.313 158.400 101.457 158.400 C 90.536 158.400,81.600 158.543,81.600 158.717 C 81.600 158.891,82.725 159.696,84.100 160.506 C 99.358 169.490,105.214 188.892,97.410 204.600 C 94.209 211.043,92.800 212.382,92.800 208.982 C 92.800 207.462,91.826 202.903,90.795 199.600 C 90.624 199.050,90.083 197.250,89.594 195.600 C 80.650 165.434,72.285 156.381,55.200 158.381 M64.305 162.368 C 72.666 164.910,77.621 171.232,82.043 185.000 C 82.749 187.200,83.992 191.070,84.805 193.600 C 87.908 203.261,89.199 209.175,89.800 216.495 C 90.068 219.757,90.288 220.398,91.143 220.406 C 92.669 220.420,92.983 221.022,92.427 222.869 C 92.140 223.821,91.835 224.845,91.748 225.145 C 91.495 226.022,90.604 225.032,90.000 223.199 C 88.811 219.597,84.637 216.608,77.952 214.571 C 69.223 211.911,69.242 211.936,65.217 197.760 C 61.852 185.906,61.107 183.369,59.568 178.523 C 58.926 176.501,58.400 174.654,58.400 174.419 C 58.400 173.709,56.735 170.286,55.717 168.901 C 54.613 167.401,51.753 165.969,49.300 165.690 C 46.654 165.388,48.161 163.882,52.400 162.591 C 53.610 162.223,54.780 161.863,55.000 161.792 C 56.394 161.343,62.093 161.695,64.305 162.368 M117.535 163.388 C 117.609 164.041,117.491 165.211,117.271 165.988 C 117.052 166.765,116.663 168.390,116.406 169.600 C 115.673 173.051,114.203 177.680,112.404 182.200 C 112.228 182.640,111.076 185.125,109.843 187.723 C 108.609 190.320,107.600 192.643,107.600 192.884 C 107.600 193.540,104.924 198.199,104.205 198.796 C 103.342 199.512,103.099 199.118,103.596 197.809 C 104.776 194.708,104.446 186.053,102.940 180.555 C 102.585 179.260,102.049 177.300,101.749 176.200 C 100.816 172.779,98.358 168.384,95.920 165.778 C 92.187 161.787,91.709 161.971,105.500 162.094 L 117.400 162.200 117.535 163.388 M134.072 165.581 C 124.008 169.009,122.960 183.887,132.484 188.134 C 144.041 193.288,155.375 184.423,151.792 173.031 C 149.738 166.499,141.521 163.044,134.072 165.581 M176.607 166.100 C 176.515 166.375,176.250 167.342,176.018 168.248 C 175.013 172.182,172.925 173.344,164.200 174.827 C 155.460 176.311,156.000 174.073,156.000 208.849 L 156.000 237.200 156.953 237.200 C 157.710 237.200,158.126 236.751,158.976 235.014 C 162.414 227.985,168.405 227.391,177.962 233.131 C 188.619 239.531,195.680 239.557,205.283 233.234 C 226.331 219.376,222.942 188.729,199.525 181.167 C 193.197 179.124,186.483 179.044,181.788 180.956 C 178.346 182.358,178.400 182.480,178.400 173.351 C 178.400 165.827,178.376 165.600,177.587 165.600 C 177.141 165.600,176.699 165.825,176.607 166.100 M280.284 165.850 C 280.128 166.006,280.000 179.482,280.000 195.797 L 280.000 225.461 279.099 226.307 C 270.820 234.084,257.704 229.558,248.239 215.657 C 245.435 211.540,245.440 211.461,248.500 210.611 C 278.636 202.240,285.365 182.147,258.869 179.648 C 238.732 177.748,223.868 190.140,223.917 208.788 C 223.929 213.506,224.138 214.876,225.554 219.524 C 228.018 227.609,236.084 234.277,247.000 237.255 C 255.586 239.596,270.641 236.900,277.276 231.833 C 279.904 229.825,280.000 229.895,280.000 233.800 L 280.000 237.200 291.600 237.200 L 303.200 237.200 303.200 213.400 C 303.200 187.067,303.046 188.436,305.744 190.805 C 308.693 193.394,309.864 200.600,308.380 207.031 C 307.106 212.552,307.954 221.138,310.214 225.600 C 316.694 238.395,334.945 241.688,347.497 232.327 C 349.717 230.671,349.838 230.895,349.211 235.504 C 346.961 252.034,338.243 257.349,329.366 247.602 C 323.808 241.499,321.649 240.269,316.131 240.062 C 307.021 239.721,301.822 244.358,299.610 254.800 C 298.828 258.491,299.209 265.400,300.194 265.400 C 300.853 265.400,301.042 265.024,301.300 263.200 C 302.166 257.068,307.472 256.321,313.337 261.506 C 329.596 275.879,348.346 258.296,359.943 217.800 C 364.407 202.211,365.405 182.611,361.853 180.306 C 361.399 180.012,332.800 179.863,332.800 180.155 C 332.800 180.240,334.120 181.635,335.732 183.255 C 349.263 196.844,352.508 228.906,340.851 233.830 C 333.876 236.777,330.400 232.832,330.400 221.971 C 330.400 216.740,330.590 214.585,331.627 208.077 C 335.323 184.866,323.804 173.178,306.084 182.157 C 303.351 183.542,303.326 183.533,302.805 181.024 C 301.970 177.000,300.128 175.698,293.800 174.657 C 285.570 173.302,283.720 172.148,282.586 167.661 C 282.134 165.874,281.085 165.048,280.284 165.850 M187.000 184.496 C 197.520 192.571,204.760 221.565,198.510 230.590 C 194.783 235.971,187.101 235.454,180.900 229.405 L 178.400 226.966 178.400 209.712 C 178.400 191.962,178.701 187.165,179.951 185.001 C 181.407 182.481,184.121 182.287,187.000 184.496 M246.245 183.791 C 253.928 186.073,259.304 195.877,256.121 201.800 C 254.398 205.005,249.561 208.489,245.539 209.421 C 243.668 209.855,238.393 199.382,237.218 192.900 C 236.034 186.367,240.328 182.034,246.245 183.791 M127.867 189.067 C 127.720 189.213,127.600 200.103,127.600 213.267 L 127.600 237.200 139.000 237.200 L 150.400 237.200 150.393 217.900 C 150.385 193.926,150.605 194.565,141.889 193.241 C 134.879 192.177,132.033 191.333,129.592 189.595 C 128.357 188.715,128.251 188.682,127.867 189.067 " stroke="none" fill="#3e2efc" fill-rule="evenodd"></path><path id="path2" d="M58.300 161.882 C 58.795 161.978,59.605 161.978,60.100 161.882 C 60.595 161.787,60.190 161.709,59.200 161.709 C 58.210 161.709,57.805 161.787,58.300 161.882 M117.254 163.620 C 117.151 165.551,116.884 165.600,106.539 165.600 L 96.838 165.600 97.745 166.579 C 98.244 167.117,99.091 168.422,99.626 169.479 C 100.162 170.535,100.735 171.460,100.900 171.533 C 101.065 171.607,101.200 171.976,101.200 172.353 C 101.200 172.731,101.391 173.231,101.625 173.465 C 101.858 173.698,102.083 174.520,102.125 175.292 C 102.173 176.184,102.372 176.629,102.673 176.515 C 103.485 176.206,105.839 182.067,107.245 187.900 C 107.749 189.991,108.400 190.723,108.400 189.200 C 108.400 188.760,108.580 188.400,108.800 188.400 C 109.020 188.400,109.200 188.040,109.200 187.600 C 109.200 187.160,109.380 186.800,109.600 186.800 C 109.820 186.800,110.000 186.547,110.000 186.238 C 110.000 185.753,110.552 184.480,112.050 181.505 C 112.243 181.123,112.400 180.536,112.400 180.200 C 112.400 179.864,112.608 179.187,112.862 178.695 C 113.856 176.774,114.000 176.384,114.000 175.629 C 114.000 175.199,114.180 174.736,114.400 174.600 C 114.620 174.464,114.800 173.834,114.800 173.200 C 114.800 172.566,114.980 171.936,115.200 171.800 C 115.420 171.664,115.600 170.854,115.600 170.000 C 115.600 169.146,115.780 168.336,116.000 168.200 C 116.220 168.064,116.400 167.483,116.400 166.908 C 116.400 166.333,116.684 165.549,117.032 165.164 C 117.382 164.777,117.585 164.050,117.487 163.533 C 117.315 162.631,117.307 162.634,117.254 163.620 M69.298 165.293 C 69.354 165.572,69.130 165.729,68.800 165.641 C 67.012 165.168,60.859 165.152,58.848 165.615 C 55.017 166.496,54.684 166.958,56.500 168.869 C 57.345 169.758,58.763 172.927,58.885 174.200 C 58.948 174.860,59.210 175.360,59.467 175.311 C 60.160 175.179,62.815 181.874,64.736 188.600 C 64.988 189.480,65.563 191.460,66.015 193.000 C 66.467 194.540,67.032 196.520,67.272 197.400 C 68.404 201.555,70.057 207.322,70.424 208.400 C 70.611 208.950,70.817 209.760,70.882 210.200 C 71.014 211.095,74.792 213.200,76.266 213.200 C 76.754 213.200,77.264 213.380,77.400 213.600 C 77.536 213.820,78.076 214.000,78.600 214.000 C 79.124 214.000,79.664 214.180,79.800 214.400 C 79.936 214.620,80.487 214.800,81.024 214.800 C 81.561 214.800,82.000 214.980,82.000 215.200 C 82.000 215.420,82.253 215.600,82.562 215.600 C 83.522 215.600,86.448 217.335,87.856 218.740 L 89.200 220.080 89.200 216.864 C 89.200 215.095,89.020 213.536,88.800 213.400 C 88.580 213.264,88.400 212.094,88.400 210.800 C 88.400 209.506,88.220 208.336,88.000 208.200 C 87.780 208.064,87.600 207.254,87.600 206.400 C 87.600 205.546,87.420 204.736,87.200 204.600 C 86.980 204.464,86.800 203.744,86.800 203.000 C 86.800 202.256,86.620 201.536,86.400 201.400 C 86.180 201.264,86.000 200.634,86.000 200.000 C 86.000 199.366,85.820 198.736,85.600 198.600 C 85.380 198.464,85.200 197.834,85.200 197.200 C 85.200 196.566,85.020 195.936,84.800 195.800 C 84.580 195.664,84.400 195.124,84.400 194.600 C 84.400 194.076,84.220 193.536,84.000 193.400 C 83.780 193.264,83.600 192.724,83.600 192.200 C 83.600 191.676,83.420 191.136,83.200 191.000 C 82.980 190.864,82.800 190.234,82.800 189.600 C 82.800 188.966,82.620 188.336,82.400 188.200 C 82.180 188.064,82.000 187.524,82.000 187.000 C 82.000 186.476,81.820 185.936,81.600 185.800 C 81.380 185.664,81.200 185.124,81.200 184.600 C 81.200 184.076,81.020 183.536,80.800 183.400 C 80.580 183.264,80.400 182.801,80.400 182.371 C 80.400 181.941,80.241 181.277,80.047 180.895 C 79.852 180.513,79.492 179.705,79.247 179.100 C 79.001 178.495,78.599 177.505,78.353 176.900 C 78.107 176.295,77.646 175.350,77.328 174.800 C 77.011 174.250,76.651 173.485,76.529 173.100 C 76.407 172.715,76.148 172.400,75.953 172.400 C 75.759 172.400,75.600 172.165,75.600 171.878 C 75.600 171.591,74.159 169.878,72.398 168.071 C 70.636 166.265,69.241 165.014,69.298 165.293 M121.916 166.408 C 122.004 167.011,121.880 167.627,121.638 167.776 C 121.397 167.925,121.200 168.836,121.200 169.800 C 121.200 170.764,121.020 171.664,120.800 171.800 C 120.580 171.936,120.400 172.566,120.400 173.200 C 120.400 173.834,120.220 174.464,120.000 174.600 C 119.780 174.736,119.600 175.366,119.600 176.000 C 119.600 176.634,119.420 177.264,119.200 177.400 C 118.980 177.536,118.800 177.999,118.800 178.429 C 118.800 178.859,118.641 179.523,118.447 179.905 C 118.083 180.621,117.389 182.246,116.700 184.000 C 116.484 184.550,116.148 185.313,115.953 185.695 C 115.759 186.077,115.600 186.662,115.600 186.995 C 115.600 187.328,115.420 187.600,115.200 187.600 C 114.980 187.600,114.800 187.960,114.800 188.400 C 114.800 188.840,114.620 189.200,114.400 189.200 C 114.180 189.200,114.001 189.425,114.003 189.700 C 114.005 190.181,110.043 198.391,109.610 198.800 C 109.494 198.910,109.129 199.522,108.800 200.159 C 108.471 200.797,107.571 201.956,106.801 202.734 C 106.030 203.513,105.626 204.015,105.903 203.850 C 107.416 202.945,106.134 207.261,103.481 212.000 C 101.690 215.199,99.022 220.707,98.202 222.900 C 97.486 224.813,97.037 225.222,96.665 224.300 C 96.554 224.025,96.449 224.554,96.432 225.476 C 96.414 226.398,96.220 227.264,96.000 227.400 C 95.780 227.536,95.600 229.017,95.600 230.692 C 95.600 232.964,95.432 233.923,94.938 234.469 C 94.542 234.906,94.462 235.200,94.738 235.200 C 94.992 235.200,95.200 235.650,95.200 236.200 C 95.200 236.914,95.416 237.200,95.957 237.200 C 96.848 237.200,97.200 236.452,97.200 234.560 C 97.200 229.965,101.696 218.357,106.402 210.800 C 116.885 193.969,123.296 178.157,123.665 168.222 C 123.748 165.992,123.691 165.828,122.754 165.578 C 121.844 165.334,121.769 165.408,121.916 166.408 M178.967 173.600 C 178.967 177.890,179.026 179.645,179.098 177.500 C 179.170 175.355,179.170 171.845,179.098 169.700 C 179.026 167.555,178.967 169.310,178.967 173.600 M48.823 171.376 C 47.087 173.224,48.235 174.142,50.564 172.768 C 51.339 172.311,52.205 172.067,52.487 172.227 C 52.769 172.387,52.626 172.153,52.169 171.708 C 50.797 170.370,49.856 170.276,48.823 171.376 M100.542 191.000 C 100.541 192.980,100.608 193.840,100.692 192.912 C 100.776 191.984,100.777 190.364,100.695 189.312 C 100.612 188.260,100.543 189.020,100.542 191.000 M127.388 212.800 C 127.388 226.330,127.438 231.865,127.500 225.100 C 127.561 218.335,127.561 207.265,127.500 200.500 C 127.438 193.735,127.388 199.270,127.388 212.800 M364.531 191.800 C 364.533 193.340,364.605 193.921,364.692 193.091 C 364.779 192.261,364.777 191.001,364.689 190.291 C 364.600 189.581,364.529 190.260,364.531 191.800 M178.984 208.800 C 178.984 218.810,179.036 222.905,179.100 217.900 C 179.163 212.895,179.163 204.705,179.100 199.700 C 179.036 194.695,178.984 198.790,178.984 208.800 M92.406 203.876 C 92.403 204.358,92.580 204.864,92.800 205.000 C 93.309 205.315,93.309 204.388,92.800 203.600 C 92.485 203.112,92.411 203.164,92.406 203.876 M93.230 207.313 C 93.198 208.938,94.060 209.707,94.927 208.825 C 95.292 208.453,95.275 208.372,94.852 208.471 C 94.532 208.547,94.088 208.019,93.783 207.200 L 93.261 205.800 93.230 207.313 M200.501 221.400 C 200.505 222.280,200.587 222.593,200.683 222.095 C 200.779 221.598,200.775 220.878,200.675 220.495 C 200.575 220.113,200.496 220.520,200.501 221.400 M90.166 221.700 C 90.295 221.975,90.511 222.515,90.646 222.900 C 91.022 223.964,91.489 223.739,91.685 222.400 C 91.839 221.350,91.741 221.200,90.897 221.200 C 90.269 221.200,90.014 221.374,90.166 221.700 M87.693 230.400 C 87.693 231.170,87.775 231.485,87.876 231.100 C 87.976 230.715,87.976 230.085,87.876 229.700 C 87.775 229.315,87.693 229.630,87.693 230.400 M339.600 259.400 C 338.628 260.390,337.923 261.200,338.033 261.200 C 338.143 261.200,339.028 260.390,340.000 259.400 C 340.972 258.410,341.677 257.600,341.567 257.600 C 341.457 257.600,340.572 258.410,339.600 259.400 M298.493 261.200 C 298.493 261.970,298.575 262.285,298.676 261.900 C 298.776 261.515,298.776 260.885,298.676 260.500 C 298.575 260.115,298.493 260.430,298.493 261.200 " stroke="none" fill="#9c94fc" fill-rule="evenodd"></path><path id="path3" d="M53.600 158.000 C 52.538 158.224,52.441 158.302,53.200 158.324 C 53.750 158.341,54.920 158.205,55.800 158.023 C 57.134 157.747,57.200 157.693,56.200 157.699 C 55.540 157.702,54.370 157.838,53.600 158.000 M62.200 158.000 C 63.892 158.431,65.344 158.431,64.000 158.000 C 63.450 157.824,62.550 157.683,62.000 157.687 C 61.102 157.694,61.122 157.726,62.200 158.000 M80.432 158.696 C 80.450 159.115,80.545 159.197,80.665 158.900 C 80.823 158.509,85.310 158.400,101.213 158.400 L 121.560 158.400 121.710 160.500 L 121.860 162.600 121.830 160.400 L 121.800 158.200 101.100 158.096 C 81.563 157.999,80.402 158.032,80.432 158.696 M47.900 159.829 C 46.349 160.670,46.525 160.961,48.100 160.159 C 49.608 159.393,49.875 159.194,49.367 159.216 C 49.165 159.225,48.505 159.501,47.900 159.829 M81.400 159.490 C 81.620 159.700,82.520 160.276,83.400 160.770 C 84.280 161.265,84.640 161.370,84.200 161.004 C 83.306 160.261,80.772 158.891,81.400 159.490 M69.800 160.272 C 70.020 160.492,71.100 161.257,72.200 161.972 C 73.300 162.687,73.840 162.923,73.400 162.496 C 72.960 162.070,71.880 161.305,71.000 160.796 C 70.120 160.288,69.580 160.052,69.800 160.272 M55.905 162.283 C 56.402 162.379,57.122 162.375,57.505 162.275 C 57.887 162.175,57.480 162.096,56.600 162.101 C 55.720 162.105,55.407 162.187,55.905 162.283 M62.833 162.544 C 62.925 162.623,63.540 162.808,64.200 162.956 C 65.076 163.152,65.238 163.115,64.800 162.818 C 64.260 162.453,62.432 162.198,62.833 162.544 M86.400 162.525 C 86.400 162.624,87.061 163.209,87.868 163.825 C 88.676 164.441,89.211 164.741,89.056 164.491 C 88.740 163.979,86.400 162.247,86.400 162.525 M49.633 164.036 C 48.137 164.949,48.466 165.606,50.400 165.569 C 51.395 165.549,51.395 165.547,50.500 165.188 C 49.341 164.722,49.366 164.552,50.700 163.829 C 51.305 163.501,51.620 163.225,51.400 163.218 C 51.180 163.210,50.385 163.578,49.633 164.036 M76.200 165.200 C 77.283 166.300,78.260 167.200,78.370 167.200 C 78.480 167.200,77.683 166.300,76.600 165.200 C 75.517 164.100,74.540 163.200,74.430 163.200 C 74.320 163.200,75.117 164.100,76.200 165.200 M41.234 165.456 C 39.421 167.516,39.272 168.054,40.300 168.832 C 40.896 169.282,40.925 169.278,40.500 168.801 C 39.720 167.925,39.882 167.447,41.634 165.456 C 42.533 164.435,43.178 163.600,43.068 163.600 C 42.958 163.600,42.133 164.435,41.234 165.456 M67.727 164.281 C 67.856 164.491,66.055 164.662,63.476 164.685 C 59.677 164.719,58.577 164.884,56.200 165.779 C 53.241 166.893,54.229 166.927,58.120 165.845 C 60.670 165.136,65.872 164.990,67.897 165.571 C 69.542 166.042,69.909 165.495,68.547 164.602 C 67.972 164.225,67.603 164.081,67.727 164.281 M136.200 164.351 C 135.540 164.493,136.890 164.608,139.200 164.608 C 141.510 164.608,142.860 164.493,142.200 164.351 C 141.540 164.210,140.190 164.095,139.200 164.095 C 138.210 164.095,136.860 164.210,136.200 164.351 M106.481 164.700 C 99.717 164.773,96.048 164.954,96.204 165.207 C 96.641 165.914,116.204 165.718,116.800 165.000 C 117.074 164.670,117.231 164.442,117.149 164.493 C 117.067 164.544,112.266 164.637,106.481 164.700 M121.712 164.936 C 121.793 165.179,122.286 165.479,122.807 165.602 C 123.686 165.809,123.748 165.998,123.665 168.213 C 123.295 178.158,116.889 193.962,106.402 210.800 C 101.696 218.357,97.200 229.965,97.200 234.560 C 97.200 236.452,96.848 237.200,95.957 237.200 C 95.418 237.200,95.200 236.915,95.200 236.208 C 95.200 234.961,94.321 234.712,90.592 234.901 L 87.800 235.043 91.073 235.122 C 94.325 235.199,94.348 235.207,94.473 236.300 C 94.688 238.166,97.600 238.188,97.600 236.324 C 97.600 235.070,98.302 231.475,99.148 228.400 C 100.770 222.507,103.337 216.923,107.609 210.000 C 110.928 204.620,112.320 202.151,114.823 197.200 C 116.907 193.079,118.761 189.016,119.570 186.800 C 119.851 186.030,120.224 185.040,120.400 184.600 C 122.515 179.300,124.079 172.454,124.149 168.187 L 124.200 165.045 122.882 164.770 C 121.992 164.583,121.612 164.637,121.712 164.936 M91.654 167.200 C 92.869 168.630,94.164 170.245,94.532 170.789 C 94.899 171.333,95.200 171.620,95.200 171.426 C 95.200 170.906,92.256 167.185,90.750 165.800 C 90.032 165.140,90.439 165.770,91.654 167.200 M176.250 165.120 C 176.126 165.320,176.470 165.399,177.014 165.295 C 177.559 165.191,178.303 165.352,178.667 165.653 C 179.235 166.121,179.302 166.114,179.134 165.600 C 178.916 164.932,176.603 164.547,176.250 165.120 M279.906 164.900 C 279.855 164.955,279.720 178.588,279.606 195.196 L 279.400 225.392 277.218 226.696 C 276.017 227.413,275.232 228.000,275.472 228.000 C 275.713 228.000,276.785 227.415,277.855 226.700 L 279.800 225.400 280.000 195.400 L 280.200 165.400 281.282 165.275 C 282.206 165.169,282.420 165.344,282.746 166.475 C 283.087 167.658,283.132 167.690,283.164 166.780 C 283.216 165.317,280.814 163.931,279.906 164.900 M146.010 165.726 C 146.609 166.374,149.295 167.997,148.818 167.422 C 148.510 167.051,147.705 166.466,147.029 166.123 C 146.353 165.779,145.895 165.601,146.010 165.726 M175.660 166.867 C 175.627 167.454,175.496 168.264,175.370 168.667 C 175.152 169.360,175.165 169.361,175.595 168.690 C 175.846 168.299,175.977 167.489,175.886 166.890 L 175.720 165.800 175.660 166.867 M150.574 169.800 C 151.967 171.852,152.252 172.095,151.477 170.571 C 151.134 169.895,150.549 169.090,150.178 168.782 C 149.807 168.474,149.985 168.932,150.574 169.800 M41.200 169.908 C 41.200 170.377,43.750 172.800,44.244 172.800 C 44.468 172.800,45.179 172.215,45.825 171.500 L 47.000 170.200 45.778 171.300 C 44.208 172.713,43.936 172.688,42.441 170.986 C 41.759 170.208,41.200 169.723,41.200 169.908 M47.436 169.942 C 47.319 170.130,47.714 170.197,48.312 170.090 L 49.400 169.895 48.242 171.129 C 46.299 173.202,48.170 175.344,50.400 173.600 C 51.537 172.710,53.035 172.557,53.335 173.300 C 53.487 173.677,53.545 173.680,53.568 173.314 C 53.641 172.192,52.011 171.914,50.520 172.794 C 48.164 174.184,47.049 173.033,48.988 171.212 C 49.531 170.701,49.880 170.130,49.764 169.942 C 49.490 169.498,47.710 169.498,47.436 169.942 M80.600 170.800 C 80.941 171.460,81.311 172.000,81.421 172.000 C 81.531 172.000,81.341 171.460,81.000 170.800 C 80.659 170.140,80.289 169.600,80.179 169.600 C 80.069 169.600,80.259 170.140,80.600 170.800 M283.954 170.313 C 284.487 171.309,286.746 172.988,287.090 172.644 C 287.224 172.510,287.129 172.400,286.880 172.400 C 286.631 172.400,285.770 171.743,284.968 170.941 C 284.156 170.129,283.706 169.851,283.954 170.313 M169.600 173.200 C 168.776 173.464,168.741 173.526,169.400 173.554 C 169.840 173.573,170.470 173.413,170.800 173.200 C 171.501 172.747,171.014 172.747,169.600 173.200 M288.000 173.182 C 288.330 173.405,288.945 173.591,289.367 173.594 C 290.390 173.602,290.071 173.373,288.600 173.044 C 287.724 172.848,287.562 172.885,288.000 173.182 M165.000 174.000 C 163.922 174.274,163.902 174.306,164.800 174.313 C 165.350 174.317,166.250 174.176,166.800 174.000 C 168.144 173.569,166.692 173.569,165.000 174.000 M292.000 174.000 C 292.550 174.176,293.450 174.317,294.000 174.313 C 294.898 174.306,294.878 174.274,293.800 174.000 C 292.108 173.569,290.656 173.569,292.000 174.000 M161.000 174.800 C 160.496 175.017,160.422 175.144,160.800 175.144 C 161.130 175.144,161.760 174.989,162.200 174.800 C 162.704 174.583,162.778 174.456,162.400 174.456 C 162.070 174.456,161.440 174.611,161.000 174.800 M296.600 174.800 C 297.040 174.989,297.670 175.144,298.000 175.144 C 298.378 175.144,298.304 175.017,297.800 174.800 C 297.360 174.611,296.730 174.456,296.400 174.456 C 296.022 174.456,296.096 174.583,296.600 174.800 M125.328 177.200 C 125.328 178.630,125.401 179.215,125.489 178.500 C 125.578 177.785,125.578 176.615,125.489 175.900 C 125.401 175.185,125.328 175.770,125.328 177.200 M59.441 175.533 C 59.266 175.816,59.306 176.532,59.529 177.124 C 59.752 177.716,60.046 178.708,60.182 179.328 C 60.319 179.951,60.643 180.386,60.907 180.298 C 61.344 180.152,62.869 184.233,64.385 189.600 C 64.664 190.590,65.031 191.850,65.200 192.400 C 65.369 192.950,65.732 194.210,66.008 195.200 C 66.283 196.190,66.665 197.540,66.856 198.200 C 67.047 198.860,67.673 201.020,68.248 203.000 C 69.607 207.690,69.840 208.995,69.251 208.631 C 68.909 208.420,68.909 208.601,69.251 209.353 C 69.648 210.223,70.707 211.036,71.019 210.709 C 71.077 210.649,70.895 209.880,70.615 209.000 C 70.073 207.295,68.658 202.445,67.931 199.800 C 67.116 196.831,66.827 195.809,66.009 193.000 C 65.560 191.460,64.989 189.480,64.740 188.600 C 62.768 181.644,59.954 174.704,59.441 175.533 M102.302 176.600 C 102.457 177.649,103.389 181.054,103.834 182.200 C 103.920 182.420,103.890 181.790,103.769 180.800 C 103.274 176.774,105.520 182.997,106.945 189.600 C 107.430 191.848,107.513 191.996,107.553 190.693 C 107.598 189.236,106.460 184.262,105.518 181.800 C 104.432 178.965,103.150 176.400,102.818 176.400 C 102.620 176.400,102.383 176.175,102.291 175.900 C 102.199 175.625,102.204 175.940,102.302 176.600 M152.920 177.200 C 152.920 178.410,152.995 178.905,153.087 178.300 C 153.178 177.695,153.178 176.705,153.087 176.100 C 152.995 175.495,152.920 175.990,152.920 177.200 M298.833 175.321 C 298.925 175.388,299.540 175.758,300.200 176.145 L 301.400 176.847 300.456 176.024 C 299.936 175.571,299.321 175.200,299.089 175.200 C 298.857 175.200,298.742 175.254,298.833 175.321 M157.329 176.900 C 156.884 177.395,156.376 178.070,156.201 178.400 C 155.863 179.037,155.955 178.950,157.576 177.100 C 158.106 176.495,158.449 176.000,158.339 176.000 C 158.229 176.000,157.775 176.405,157.329 176.900 M302.255 178.200 C 303.180 179.779,303.200 179.803,303.200 179.311 C 303.200 179.079,302.829 178.464,302.376 177.944 L 301.553 177.000 302.255 178.200 M85.016 179.400 C 90.714 196.706,91.820 200.147,92.791 203.600 C 94.349 209.141,94.473 209.324,95.495 207.600 C 96.007 206.736,96.008 206.695,95.500 207.300 C 94.735 208.210,94.400 208.186,94.400 207.219 C 94.400 206.789,94.239 206.024,94.042 205.519 C 93.845 205.013,93.458 203.790,93.182 202.800 C 92.724 201.155,90.780 195.076,87.554 185.200 C 86.871 183.110,85.961 180.770,85.533 180.000 C 85.104 179.230,84.872 178.960,85.016 179.400 M187.511 179.093 C 188.451 179.178,189.891 179.177,190.711 179.091 C 191.530 179.005,190.760 178.936,189.000 178.937 C 187.240 178.939,186.570 179.009,187.511 179.093 M253.100 179.095 C 254.255 179.176,256.145 179.176,257.300 179.095 C 258.455 179.014,257.510 178.948,255.200 178.948 C 252.890 178.948,251.945 179.014,253.100 179.095 M315.300 179.091 C 316.125 179.178,317.475 179.178,318.300 179.091 C 319.125 179.005,318.450 178.934,316.800 178.934 C 315.150 178.934,314.475 179.005,315.300 179.091 M183.400 179.600 C 182.896 179.817,182.822 179.944,183.200 179.944 C 183.530 179.944,184.160 179.789,184.600 179.600 C 185.104 179.383,185.178 179.256,184.800 179.256 C 184.470 179.256,183.840 179.411,183.400 179.600 M194.400 179.600 C 194.950 179.776,195.760 179.920,196.200 179.920 C 196.833 179.920,196.792 179.854,196.000 179.600 C 195.450 179.424,194.640 179.280,194.200 179.280 C 193.567 179.280,193.608 179.346,194.400 179.600 M247.200 179.600 C 245.856 180.031,247.308 180.031,249.000 179.600 C 250.078 179.326,250.098 179.294,249.200 179.287 C 248.650 179.283,247.750 179.424,247.200 179.600 M261.600 179.600 C 262.150 179.776,263.050 179.917,263.600 179.913 C 264.498 179.906,264.478 179.874,263.400 179.600 C 261.708 179.169,260.256 179.169,261.600 179.600 M311.000 179.600 C 310.496 179.817,310.422 179.944,310.800 179.944 C 311.130 179.944,311.760 179.789,312.200 179.600 C 312.704 179.383,312.778 179.256,312.400 179.256 C 312.070 179.256,311.440 179.411,311.000 179.600 M331.784 180.027 C 331.639 180.261,331.628 180.561,331.760 180.693 C 331.892 180.825,332.000 180.723,332.000 180.467 C 332.000 180.119,335.878 180.000,347.167 180.000 L 362.334 180.000 363.025 181.809 C 363.405 182.804,363.795 183.539,363.891 183.442 C 363.988 183.346,363.702 182.442,363.256 181.433 L 362.445 179.600 347.246 179.600 C 336.913 179.600,331.963 179.737,331.784 180.027 M198.200 180.400 C 198.640 180.589,199.270 180.744,199.600 180.744 C 199.978 180.744,199.904 180.617,199.400 180.400 C 198.960 180.211,198.330 180.056,198.000 180.056 C 197.622 180.056,197.696 180.183,198.200 180.400 M324.200 180.673 C 326.406 181.850,328.307 183.585,329.601 185.601 C 330.997 187.777,331.692 188.358,330.523 186.373 C 328.868 183.562,324.853 179.963,323.431 180.016 C 323.194 180.025,323.540 180.320,324.200 180.673 M303.260 181.500 C 303.193 182.952,303.777 183.176,305.024 182.178 C 305.774 181.577,305.770 181.570,304.926 181.978 C 303.718 182.562,303.674 182.541,303.487 181.300 C 303.331 180.276,303.316 180.290,303.260 181.500 M60.856 181.200 C 60.856 181.530,61.011 182.160,61.200 182.600 C 61.417 183.104,61.544 183.178,61.544 182.800 C 61.544 182.470,61.389 181.840,61.200 181.400 C 60.983 180.896,60.856 180.822,60.856 181.200 M333.925 182.234 C 334.874 183.096,336.284 184.520,337.059 185.400 C 338.012 186.484,338.208 186.613,337.667 185.800 C 336.842 184.563,334.409 182.171,333.000 181.213 C 332.560 180.914,332.976 181.373,333.925 182.234 M155.296 209.257 C 155.191 240.037,155.052 238.077,157.333 237.953 C 157.962 237.918,157.871 237.835,157.000 237.649 L 155.800 237.392 155.596 209.196 L 155.392 181.000 155.296 209.257 M99.295 182.400 C 99.295 182.950,99.432 183.940,99.600 184.600 C 99.872 185.670,99.905 185.692,99.905 184.800 C 99.905 184.250,99.768 183.260,99.600 182.600 C 99.328 181.530,99.295 181.508,99.295 182.400 M239.100 182.229 C 237.549 183.070,237.725 183.361,239.300 182.559 C 240.808 181.793,241.075 181.594,240.567 181.616 C 240.365 181.625,239.705 181.901,239.100 182.229 M204.400 182.579 C 204.400 182.689,204.940 183.059,205.600 183.400 C 206.260 183.741,206.800 183.931,206.800 183.821 C 206.800 183.711,206.260 183.341,205.600 183.000 C 204.940 182.659,204.400 182.469,204.400 182.579 M151.036 183.930 C 150.480 185.006,148.221 187.218,146.568 188.306 C 146.146 188.584,146.340 188.554,147.000 188.239 C 148.765 187.396,152.842 182.800,151.824 182.800 C 151.712 182.800,151.358 183.309,151.036 183.930 M104.095 184.000 C 104.095 184.550,104.232 185.540,104.400 186.200 C 104.672 187.270,104.705 187.292,104.705 186.400 C 104.705 185.850,104.568 184.860,104.400 184.200 C 104.128 183.130,104.095 183.108,104.095 184.000 M181.852 183.516 C 181.744 183.690,182.273 183.761,183.028 183.673 C 183.783 183.585,184.400 183.442,184.400 183.356 C 184.400 183.055,182.045 183.203,181.852 183.516 M273.453 185.000 C 274.289 186.100,275.023 187.075,275.086 187.167 C 275.149 187.258,275.200 187.168,275.199 186.967 C 275.198 186.765,274.464 185.790,273.566 184.800 L 271.935 183.000 273.453 185.000 M180.516 184.500 C 179.762 185.488,179.138 187.542,179.313 188.462 C 179.472 189.299,179.497 189.280,179.546 188.281 C 179.575 187.665,179.944 186.450,180.364 185.581 C 181.145 183.964,181.194 183.612,180.516 184.500 M207.200 184.125 C 207.200 184.224,207.861 184.809,208.668 185.425 C 209.476 186.041,210.011 186.341,209.856 186.091 C 209.540 185.579,207.200 183.847,207.200 184.125 M234.385 185.229 L 233.000 186.458 234.500 185.381 C 235.826 184.430,236.257 184.000,235.885 184.000 C 235.822 184.000,235.147 184.553,234.385 185.229 M240.109 184.900 C 238.734 185.867,237.254 188.188,237.718 188.651 C 237.873 188.806,238.000 188.647,238.000 188.297 C 238.000 187.359,239.979 185.173,241.380 184.563 C 242.051 184.270,242.327 184.024,241.994 184.016 C 241.661 184.007,240.813 184.405,240.109 184.900 M364.277 186.600 C 364.400 187.920,364.568 189.075,364.650 189.167 C 364.918 189.464,364.715 186.634,364.380 185.400 C 364.165 184.611,364.130 185.022,364.277 186.600 M188.383 186.500 C 190.041 188.266,190.400 188.584,190.400 188.283 C 190.400 188.219,189.545 187.364,188.500 186.383 L 186.600 184.600 188.383 186.500 M248.811 185.459 C 249.355 185.821,250.686 186.946,251.769 187.959 C 253.089 189.194,253.419 189.393,252.769 188.565 C 251.730 187.242,248.749 184.800,248.172 184.800 C 247.979 184.800,248.267 185.096,248.811 185.459 M62.412 186.800 C 62.412 187.130,62.587 187.670,62.800 188.000 C 63.145 188.533,63.188 188.533,63.188 188.000 C 63.188 187.670,63.013 187.130,62.800 186.800 C 62.455 186.267,62.412 186.267,62.412 186.800 M129.582 186.978 C 129.890 187.349,130.695 187.934,131.371 188.277 C 132.895 189.052,132.652 188.767,130.600 187.374 C 129.732 186.785,129.274 186.607,129.582 186.978 M211.286 187.746 C 211.789 188.267,212.274 188.628,212.364 188.549 C 212.597 188.345,211.148 186.800,210.724 186.800 C 210.530 186.800,210.783 187.226,211.286 187.746 M230.248 188.923 C 228.349 191.146,225.595 195.450,225.607 196.176 C 225.611 196.409,226.150 195.629,226.804 194.442 C 228.167 191.970,229.576 190.051,231.436 188.136 C 232.149 187.401,232.582 186.800,232.398 186.800 C 232.213 186.800,231.246 187.755,230.248 188.923 M127.200 188.024 C 127.200 188.257,127.359 188.349,127.553 188.229 C 127.747 188.109,128.332 188.342,128.853 188.746 C 129.904 189.562,131.600 190.510,131.600 190.281 C 131.600 190.083,127.752 187.600,127.444 187.600 C 127.310 187.600,127.200 187.791,127.200 188.024 M275.400 190.600 C 275.400 192.234,275.522 193.262,275.672 192.885 C 275.821 192.508,275.944 191.480,275.944 190.600 C 275.944 189.720,275.821 188.692,275.672 188.315 C 275.522 187.938,275.400 188.966,275.400 190.600 M58.456 188.800 C 58.456 189.130,58.611 189.760,58.800 190.200 C 59.017 190.704,59.144 190.778,59.144 190.400 C 59.144 190.070,58.989 189.440,58.800 189.000 C 58.583 188.496,58.456 188.422,58.456 188.800 M137.100 190.118 C 138.269 190.309,140.131 190.309,141.300 190.118 C 143.151 189.815,142.902 189.774,139.200 189.774 C 135.498 189.774,135.249 189.815,137.100 190.118 M341.082 191.789 C 341.673 192.993,342.223 193.911,342.305 193.829 C 342.484 193.649,340.467 189.600,340.198 189.600 C 340.094 189.600,340.492 190.585,341.082 191.789 M303.297 213.900 L 303.394 237.800 303.500 214.100 C 303.575 197.300,303.734 190.400,304.043 190.400 C 304.283 190.400,305.092 191.012,305.840 191.760 C 306.588 192.508,307.200 192.977,307.200 192.801 C 307.200 192.280,304.421 190.000,303.786 190.000 C 303.277 190.000,303.213 193.130,303.297 213.900 M332.068 191.000 C 332.062 191.440,332.211 192.160,332.400 192.600 C 332.838 193.619,332.838 192.568,332.400 191.200 C 332.143 190.396,332.077 190.357,332.068 191.000 M64.056 192.400 C 64.056 192.730,64.211 193.360,64.400 193.800 C 64.617 194.304,64.744 194.378,64.744 194.000 C 64.744 193.670,64.589 193.040,64.400 192.600 C 64.183 192.096,64.056 192.022,64.056 192.400 M138.800 192.380 C 139.799 192.720,142.282 192.932,141.967 192.651 C 141.875 192.569,140.900 192.399,139.800 192.272 C 138.451 192.116,138.126 192.151,138.800 192.380 M193.882 194.589 C 194.473 195.793,195.023 196.711,195.105 196.629 C 195.284 196.449,193.267 192.400,192.998 192.400 C 192.894 192.400,193.292 193.385,193.882 194.589 M237.606 193.233 C 237.609 193.765,237.789 194.470,238.006 194.800 C 238.282 195.222,238.323 194.985,238.142 194.000 C 237.825 192.275,237.598 191.949,237.606 193.233 M106.278 194.205 C 105.912 194.972,105.695 195.600,105.796 195.600 C 106.070 195.600,107.284 193.151,107.101 192.968 C 107.014 192.881,106.644 193.438,106.278 194.205 M143.800 193.200 C 144.240 193.389,144.870 193.544,145.200 193.544 C 145.578 193.544,145.504 193.417,145.000 193.200 C 144.560 193.011,143.930 192.856,143.600 192.856 C 143.222 192.856,143.296 192.983,143.800 193.200 M256.200 197.374 C 256.200 199.214,256.332 200.513,256.494 200.260 C 256.858 199.690,256.842 195.647,256.472 194.714 C 256.322 194.336,256.200 195.533,256.200 197.374 M274.378 195.098 C 273.474 196.901,273.487 197.079,274.420 195.683 C 274.904 194.959,275.217 194.283,275.115 194.182 C 275.013 194.080,274.681 194.492,274.378 195.098 M104.460 194.850 C 104.427 195.208,104.288 196.063,104.150 196.750 C 103.978 197.609,104.054 198.000,104.393 198.000 C 104.674 198.000,104.783 197.733,104.647 197.379 C 104.516 197.038,104.568 196.857,104.763 196.977 C 104.957 197.097,105.223 196.917,105.354 196.577 C 105.484 196.237,105.425 196.061,105.223 196.186 C 105.020 196.311,104.779 195.916,104.687 195.307 C 104.595 194.698,104.493 194.493,104.460 194.850 M148.794 195.403 C 150.387 197.321,150.521 197.445,150.086 196.596 C 149.859 196.153,149.252 195.434,148.737 194.998 C 147.833 194.234,147.835 194.248,148.794 195.403 M364.188 197.388 C 364.031 199.064,363.989 200.523,364.095 200.629 C 364.201 200.734,364.412 199.446,364.565 197.765 C 364.717 196.084,364.759 194.626,364.658 194.524 C 364.557 194.423,364.345 195.712,364.188 197.388 M332.934 198.000 C 332.934 199.650,333.005 200.325,333.091 199.500 C 333.178 198.675,333.178 197.325,333.091 196.500 C 333.005 195.675,332.934 196.350,332.934 198.000 M308.188 200.723 C 308.180 203.984,308.279 205.228,308.465 204.200 C 308.828 202.189,308.833 197.222,308.472 196.323 C 308.322 195.950,308.194 197.930,308.188 200.723 M99.450 197.250 C 99.117 198.917,99.440 199.240,99.800 197.600 C 99.952 196.909,99.993 196.259,99.891 196.158 C 99.789 196.056,99.591 196.547,99.450 197.250 M150.704 214.072 C 150.761 223.162,150.858 232.220,150.921 234.200 C 150.983 236.180,151.053 229.160,151.077 218.600 C 151.101 208.040,151.003 198.982,150.860 198.472 C 150.717 197.962,150.647 204.982,150.704 214.072 M224.229 199.829 C 224.081 200.415,224.038 200.972,224.132 201.066 C 224.227 201.160,224.424 200.758,224.571 200.171 C 224.719 199.585,224.762 199.028,224.668 198.934 C 224.573 198.840,224.376 199.242,224.229 199.829 M218.456 199.600 C 218.456 199.930,218.611 200.560,218.800 201.000 C 219.017 201.504,219.144 201.578,219.144 201.200 C 219.144 200.870,218.989 200.240,218.800 199.800 C 218.583 199.296,218.456 199.222,218.456 199.600 M268.800 201.649 C 267.719 202.626,267.479 202.958,268.200 202.481 C 269.306 201.749,271.137 199.984,270.762 200.012 C 270.673 200.019,269.790 200.755,268.800 201.649 M66.456 200.800 C 66.456 201.130,66.611 201.760,66.800 202.200 C 67.017 202.704,67.144 202.778,67.144 202.400 C 67.144 202.070,66.989 201.440,66.800 201.000 C 66.583 200.496,66.456 200.422,66.456 200.800 M345.044 201.400 C 345.373 202.871,345.602 203.190,345.594 202.167 C 345.591 201.745,345.405 201.130,345.182 200.800 C 344.885 200.362,344.848 200.524,345.044 201.400 M196.856 201.600 C 196.856 201.930,197.011 202.560,197.200 203.000 C 197.417 203.504,197.544 203.578,197.544 203.200 C 197.544 202.870,197.389 202.240,197.200 201.800 C 196.983 201.296,196.856 201.222,196.856 201.600 M223.433 203.633 C 223.283 204.766,223.241 205.774,223.339 205.872 C 223.437 205.971,223.645 205.128,223.800 204.000 C 223.955 202.872,223.998 201.864,223.894 201.761 C 223.791 201.658,223.584 202.500,223.433 203.633 M219.514 207.000 C 219.621 209.640,219.774 211.875,219.854 211.967 C 220.134 212.287,219.951 205.386,219.637 203.800 C 219.447 202.838,219.398 204.114,219.514 207.000 M253.970 203.854 C 253.436 204.434,252.298 205.424,251.440 206.054 C 250.582 206.684,250.079 207.200,250.321 207.200 C 250.771 207.200,255.590 202.841,255.170 202.815 C 255.043 202.807,254.503 203.274,253.970 203.854 M332.185 205.385 C 332.030 206.623,331.990 207.723,332.095 207.829 C 332.201 207.934,332.407 207.001,332.554 205.754 C 332.700 204.507,332.741 203.407,332.643 203.310 C 332.546 203.212,332.339 204.146,332.185 205.385 M345.656 203.600 C 345.656 203.930,345.811 204.560,346.000 205.000 C 346.217 205.504,346.344 205.578,346.344 205.200 C 346.344 204.870,346.189 204.240,346.000 203.800 C 345.783 203.296,345.656 203.222,345.656 203.600 M105.128 205.084 C 103.886 206.968,103.117 208.400,103.346 208.400 C 103.442 208.400,103.906 207.747,104.377 206.950 C 104.847 206.152,105.345 205.612,105.484 205.750 C 105.771 206.037,105.491 206.700,103.443 210.600 C 101.870 213.593,98.513 220.477,97.980 221.800 C 97.803 222.240,97.554 222.870,97.426 223.200 C 97.298 223.530,97.279 223.080,97.385 222.200 C 97.519 221.089,97.460 220.783,97.195 221.200 C 96.717 221.950,96.678 224.800,97.146 224.800 C 97.336 224.800,97.811 223.945,98.202 222.900 C 99.026 220.698,101.692 215.195,103.500 211.966 C 106.500 206.607,107.830 200.985,105.128 205.084 M197.668 204.400 C 197.688 205.439,198.318 207.146,198.332 206.200 C 198.338 205.760,198.189 205.040,198.000 204.600 C 197.789 204.110,197.661 204.032,197.668 204.400 M264.300 204.629 C 262.805 205.440,262.896 205.778,264.400 205.000 C 265.060 204.659,265.600 204.294,265.600 204.190 C 265.600 203.932,265.557 203.947,264.300 204.629 M242.415 205.400 C 242.417 205.620,242.786 206.250,243.236 206.800 C 243.779 207.464,243.915 207.531,243.640 207.000 C 242.966 205.695,242.412 204.972,242.415 205.400 M307.446 209.046 C 307.300 210.293,307.259 211.393,307.357 211.490 C 307.454 211.588,307.661 210.654,307.815 209.415 C 307.970 208.177,308.010 207.077,307.905 206.971 C 307.799 206.866,307.593 207.799,307.446 209.046 M346.662 208.200 C 346.796 209.080,346.972 209.875,347.053 209.967 C 347.356 210.310,347.129 208.168,346.781 207.400 C 346.529 206.842,346.493 207.085,346.662 208.200 M198.662 208.600 C 198.796 209.480,198.972 210.275,199.053 210.367 C 199.356 210.710,199.129 208.568,198.781 207.800 C 198.529 207.242,198.493 207.485,198.662 208.600 M331.453 210.836 C 331.314 211.531,331.221 212.572,331.247 213.150 C 331.272 213.728,331.455 213.227,331.652 212.039 C 332.037 209.721,331.873 208.734,331.453 210.836 M101.414 211.435 C 101.041 212.004,100.805 212.538,100.889 212.622 C 100.973 212.707,101.358 212.241,101.744 211.588 C 102.606 210.128,102.348 210.009,101.414 211.435 M361.800 211.600 C 361.648 212.291,361.607 212.941,361.709 213.042 C 361.811 213.144,362.009 212.653,362.150 211.950 C 362.291 211.247,362.331 210.598,362.241 210.508 C 362.150 210.417,361.952 210.909,361.800 211.600 M199.472 213.000 C 199.599 214.100,199.769 215.075,199.851 215.167 C 200.132 215.482,199.920 212.999,199.580 212.000 C 199.351 211.326,199.316 211.651,199.472 213.000 M246.557 211.767 C 246.437 212.079,247.163 213.563,248.170 215.063 C 249.176 216.564,250.000 217.649,250.000 217.474 C 250.000 217.299,249.280 216.096,248.400 214.800 C 246.609 212.163,246.494 211.739,247.500 211.476 C 248.156 211.304,248.155 211.290,247.487 211.246 C 247.096 211.221,246.677 211.455,246.557 211.767 M223.295 212.400 C 223.295 212.950,223.432 213.940,223.600 214.600 C 223.872 215.670,223.905 215.692,223.905 214.800 C 223.905 214.250,223.768 213.260,223.600 212.600 C 223.328 211.530,223.295 211.508,223.295 212.400 M347.293 213.200 C 347.293 213.970,347.375 214.285,347.476 213.900 C 347.576 213.515,347.576 212.885,347.476 212.500 C 347.375 212.115,347.293 212.430,347.293 213.200 M361.000 214.800 C 360.848 215.491,360.807 216.141,360.909 216.242 C 361.011 216.344,361.209 215.853,361.350 215.150 C 361.491 214.447,361.531 213.798,361.441 213.708 C 361.350 213.617,361.152 214.109,361.000 214.800 M347.724 217.000 C 347.726 218.320,347.801 218.812,347.890 218.093 C 347.979 217.374,347.977 216.294,347.886 215.693 C 347.795 215.092,347.722 215.680,347.724 217.000 M330.657 218.059 C 330.351 220.986,330.395 225.342,330.747 226.964 C 330.886 227.605,331.008 225.310,331.017 221.864 C 331.037 214.823,331.017 214.615,330.657 218.059 M224.056 216.800 C 224.056 217.130,224.211 217.760,224.400 218.200 C 224.617 218.704,224.744 218.778,224.744 218.400 C 224.744 218.070,224.589 217.440,224.400 217.000 C 224.183 216.496,224.056 216.422,224.056 216.800 M200.148 220.800 C 200.148 223.110,200.214 224.055,200.295 222.900 C 200.376 221.745,200.376 219.855,200.295 218.700 C 200.214 217.545,200.148 218.490,200.148 220.800 M360.229 217.829 C 360.081 218.415,360.038 218.972,360.132 219.066 C 360.227 219.160,360.424 218.758,360.571 218.171 C 360.719 217.585,360.762 217.028,360.668 216.934 C 360.573 216.840,360.376 217.242,360.229 217.829 M307.287 218.000 C 307.283 218.550,307.424 219.450,307.600 220.000 C 308.031 221.344,308.031 219.892,307.600 218.200 C 307.326 217.122,307.294 217.102,307.287 218.000 M251.096 219.000 C 251.547 219.660,252.970 221.254,254.258 222.542 C 255.546 223.830,257.140 225.253,257.800 225.704 C 258.460 226.154,257.973 225.588,256.717 224.445 C 255.461 223.302,253.498 221.339,252.355 220.083 C 251.212 218.827,250.646 218.340,251.096 219.000 M75.444 218.765 C 75.688 219.030,77.651 219.862,79.805 220.612 C 81.960 221.362,84.189 222.386,84.759 222.888 L 85.794 223.800 84.997 222.845 C 84.181 221.867,83.204 221.370,79.000 219.797 C 77.680 219.302,76.240 218.759,75.800 218.590 C 75.187 218.354,75.104 218.395,75.444 218.765 M347.293 220.800 C 347.293 221.570,347.375 221.885,347.476 221.500 C 347.576 221.115,347.576 220.485,347.476 220.100 C 347.375 219.715,347.293 220.030,347.293 220.800 M214.925 224.102 C 214.020 225.478,211.867 228.036,210.140 229.786 C 208.413 231.536,207.630 232.468,208.400 231.857 C 210.303 230.346,214.908 225.057,215.979 223.152 C 217.288 220.823,216.779 221.282,214.925 224.102 M346.846 223.667 C 346.821 224.034,346.696 224.664,346.570 225.067 C 346.352 225.762,346.363 225.763,346.797 225.087 C 347.048 224.696,347.173 224.066,347.073 223.687 C 346.911 223.068,346.888 223.066,346.846 223.667 M228.730 226.700 C 229.161 227.305,229.928 228.160,230.434 228.600 C 230.940 229.040,230.651 228.545,229.792 227.500 C 228.073 225.408,227.503 224.979,228.730 226.700 M179.200 227.052 C 179.200 227.264,179.965 228.149,180.900 229.019 L 182.600 230.600 181.000 228.806 C 180.120 227.820,179.355 226.935,179.300 226.839 C 179.245 226.744,179.200 226.840,179.200 227.052 M262.000 228.200 C 262.550 228.514,263.180 228.772,263.400 228.772 C 263.620 228.772,263.350 228.514,262.800 228.200 C 262.250 227.886,261.620 227.628,261.400 227.628 C 261.180 227.628,261.450 227.886,262.000 228.200 M344.766 229.300 C 344.512 229.795,343.741 230.830,343.052 231.599 L 341.800 232.998 343.136 231.799 C 344.347 230.711,345.904 228.400,345.424 228.400 C 345.316 228.400,345.020 228.805,344.766 229.300 M265.115 229.272 C 265.492 229.421,267.060 229.544,268.600 229.544 C 270.140 229.544,271.708 229.421,272.085 229.272 C 272.462 229.122,270.894 229.000,268.600 229.000 C 266.306 229.000,264.738 229.122,265.115 229.272 M165.200 229.823 C 166.630 230.134,170.761 230.222,170.304 229.932 C 170.027 229.756,168.630 229.630,167.200 229.653 C 165.770 229.675,164.870 229.752,165.200 229.823 M314.199 231.800 C 316.066 233.603,318.800 235.538,318.800 235.055 C 318.800 234.951,318.125 234.451,317.300 233.945 C 316.475 233.439,314.974 232.300,313.964 231.413 C 312.432 230.067,312.471 230.131,314.199 231.800 M196.778 231.459 L 195.400 232.917 196.681 231.998 C 197.385 231.492,198.054 230.836,198.168 230.539 C 198.476 229.736,198.291 229.859,196.778 231.459 M161.251 232.191 C 160.343 233.176,159.604 234.121,159.608 234.291 C 159.612 234.461,160.256 233.836,161.039 232.902 C 161.822 231.969,162.763 231.029,163.131 230.815 C 163.499 230.600,163.598 230.419,163.351 230.412 C 163.104 230.405,162.159 231.206,161.251 232.191 M183.182 230.978 C 183.880 231.819,185.995 232.938,186.304 232.629 C 186.430 232.503,186.348 232.400,186.122 232.400 C 185.897 232.400,185.016 231.928,184.167 231.352 C 183.317 230.775,182.874 230.607,183.182 230.978 M233.661 231.683 C 234.464 232.407,235.724 233.323,236.461 233.717 C 237.749 234.407,237.762 234.407,236.810 233.717 C 236.266 233.323,235.006 232.407,234.010 231.683 L 232.200 230.366 233.661 231.683 M279.512 233.299 C 279.702 237.550,279.877 237.960,279.940 234.300 C 279.973 232.375,279.865 230.800,279.700 230.799 C 279.535 230.799,279.450 231.924,279.512 233.299 M276.687 232.568 C 274.326 234.202,273.764 234.775,275.506 233.772 C 276.850 232.999,279.156 231.223,278.800 231.236 C 278.690 231.241,277.739 231.840,276.687 232.568 M332.000 231.464 C 332.000 231.682,332.495 232.297,333.100 232.830 L 334.200 233.800 333.200 232.600 C 332.650 231.940,332.155 231.325,332.100 231.233 C 332.045 231.142,332.000 231.245,332.000 231.464 M87.701 233.000 C 87.705 233.880,87.787 234.193,87.883 233.695 C 87.979 233.198,87.975 232.478,87.875 232.095 C 87.775 231.713,87.696 232.120,87.701 233.000 M175.600 232.420 C 176.987 233.361,177.778 233.635,176.800 232.836 C 176.250 232.386,175.620 232.017,175.400 232.015 C 175.180 232.013,175.270 232.196,175.600 232.420 M346.800 233.260 C 346.030 233.935,345.775 234.298,346.233 234.066 C 346.691 233.834,347.298 233.364,347.582 233.022 C 348.256 232.209,348.698 232.235,348.924 233.100 C 349.062 233.627,349.119 233.577,349.154 232.900 C 349.217 231.679,348.473 231.793,346.800 233.260 M178.200 233.890 C 178.420 234.100,179.320 234.676,180.200 235.170 C 181.080 235.665,181.440 235.770,181.000 235.404 C 180.106 234.661,177.572 233.291,178.200 233.890 M190.300 233.882 C 190.795 233.978,191.605 233.978,192.100 233.882 C 192.595 233.787,192.190 233.709,191.200 233.709 C 190.210 233.709,189.805 233.787,190.300 233.882 M334.940 234.094 C 335.508 234.457,338.354 234.441,339.290 234.070 C 339.670 233.919,338.743 233.797,337.230 233.798 C 335.718 233.799,334.687 233.932,334.940 234.094 M202.000 235.600 C 200.790 236.239,199.941 236.771,200.113 236.781 C 200.538 236.807,204.400 234.836,204.400 234.593 C 204.400 234.326,204.455 234.303,202.000 235.600 M343.900 235.029 C 342.405 235.840,342.496 236.178,344.000 235.400 C 344.660 235.059,345.200 234.694,345.200 234.590 C 345.200 234.332,345.157 234.347,343.900 235.029 M240.400 235.766 C 240.950 236.060,241.850 236.412,242.400 236.549 C 242.950 236.686,242.680 236.452,241.800 236.029 C 239.990 235.158,238.868 234.948,240.400 235.766 M320.000 235.766 C 320.550 236.060,321.450 236.412,322.000 236.549 C 322.550 236.686,322.280 236.452,321.400 236.029 C 319.590 235.158,318.468 234.948,320.000 235.766 M348.255 237.055 C 348.113 238.086,348.074 239.008,348.169 239.102 C 348.263 239.196,348.465 238.439,348.618 237.418 C 348.771 236.398,348.810 235.476,348.704 235.371 C 348.598 235.265,348.396 236.023,348.255 237.055 M244.200 237.200 C 244.640 237.389,245.270 237.544,245.600 237.544 C 245.978 237.544,245.904 237.417,245.400 237.200 C 244.960 237.011,244.330 236.856,244.000 236.856 C 243.622 236.856,243.696 236.983,244.200 237.200 M266.600 237.200 C 266.096 237.417,266.022 237.544,266.400 237.544 C 266.730 237.544,267.360 237.389,267.800 237.200 C 268.304 236.983,268.378 236.856,268.000 236.856 C 267.670 236.856,267.040 237.011,266.600 237.200 M133.500 237.899 C 136.635 237.967,141.765 237.967,144.900 237.899 C 148.035 237.832,145.470 237.776,139.200 237.776 C 132.930 237.776,130.365 237.832,133.500 237.899 M195.000 238.000 C 193.981 238.438,195.032 238.438,196.400 238.000 C 197.204 237.743,197.243 237.677,196.600 237.668 C 196.160 237.662,195.440 237.811,195.000 238.000 M262.000 238.020 C 261.326 238.249,261.651 238.284,263.000 238.128 C 264.100 238.001,265.075 237.831,265.167 237.749 C 265.482 237.468,262.999 237.680,262.000 238.020 M285.900 237.899 C 289.035 237.967,294.165 237.967,297.300 237.899 C 300.435 237.832,297.870 237.776,291.600 237.776 C 285.330 237.776,282.765 237.832,285.900 237.899 M328.000 238.066 C 330.210 238.403,335.384 238.395,336.969 238.053 C 337.612 237.914,335.452 237.798,332.169 237.796 C 328.545 237.794,326.907 237.900,328.000 238.066 M190.105 238.687 C 190.714 238.779,191.614 238.777,192.105 238.682 C 192.597 238.587,192.100 238.511,191.000 238.514 C 189.900 238.517,189.497 238.595,190.105 238.687 M253.900 238.693 C 254.835 238.777,256.365 238.777,257.300 238.693 C 258.235 238.609,257.470 238.540,255.600 238.540 C 253.730 238.540,252.965 238.609,253.900 238.693 M311.200 239.580 C 310.650 239.746,311.820 239.803,313.800 239.708 C 315.780 239.612,317.580 239.473,317.800 239.399 C 318.635 239.116,312.152 239.294,311.200 239.580 M306.160 241.946 C 304.323 243.295,303.164 244.548,302.222 246.200 C 301.552 247.378,301.552 247.382,302.256 246.400 C 303.233 245.038,305.979 242.321,307.200 241.508 C 307.750 241.142,308.092 240.833,307.960 240.821 C 307.828 240.809,307.018 241.316,306.160 241.946 M322.400 240.958 C 322.400 241.045,323.296 241.691,324.390 242.394 C 325.485 243.096,327.510 244.960,328.890 246.535 C 330.271 248.110,331.580 249.585,331.800 249.813 C 332.627 250.668,334.744 252.000,335.262 251.991 C 335.558 251.986,335.201 251.687,334.469 251.326 C 333.737 250.965,331.667 249.065,329.869 247.103 C 326.506 243.432,322.400 240.055,322.400 240.958 M351.072 242.619 C 350.132 244.589,350.264 244.924,351.247 243.062 C 351.693 242.216,351.987 241.454,351.901 241.367 C 351.814 241.281,351.441 241.844,351.072 242.619 M346.800 242.884 C 346.800 243.004,346.528 243.754,346.195 244.551 C 345.862 245.348,345.679 246.000,345.789 246.000 C 346.106 246.000,347.233 243.100,347.005 242.872 C 346.892 242.759,346.800 242.765,346.800 242.884 M343.923 248.304 C 343.635 248.691,342.801 249.501,342.069 250.104 C 341.337 250.707,340.861 251.200,341.012 251.200 C 341.408 251.200,343.711 249.213,344.323 248.343 C 344.988 247.398,344.622 247.362,343.923 248.304 M347.800 248.800 C 347.459 249.460,347.269 250.000,347.379 250.000 C 347.489 250.000,347.859 249.460,348.200 248.800 C 348.541 248.140,348.731 247.600,348.621 247.600 C 348.511 247.600,348.141 248.140,347.800 248.800 M299.429 252.229 C 299.281 252.815,299.238 253.372,299.332 253.466 C 299.427 253.560,299.624 253.158,299.771 252.571 C 299.919 251.985,299.962 251.428,299.868 251.334 C 299.773 251.240,299.576 251.642,299.429 252.229 M339.000 251.600 L 337.800 251.905 338.876 251.953 C 339.468 251.979,340.064 251.820,340.200 251.600 C 340.336 251.380,340.392 251.221,340.324 251.247 C 340.256 251.273,339.660 251.432,339.000 251.600 M343.015 255.798 C 341.752 257.447,339.612 259.808,338.259 261.045 C 336.015 263.097,335.984 263.146,337.903 261.607 C 339.925 259.986,342.216 257.478,344.579 254.300 C 345.193 253.475,345.609 252.800,345.503 252.800 C 345.397 252.800,344.278 254.149,343.015 255.798 M298.672 255.804 C 298.527 256.682,298.430 258.030,298.455 258.800 C 298.484 259.678,298.629 259.230,298.844 257.600 C 299.224 254.715,299.087 253.289,298.672 255.804 M303.768 259.154 C 302.331 260.031,301.467 261.836,301.709 263.457 C 301.874 264.558,301.882 264.552,301.940 263.280 C 302.083 260.141,304.117 258.529,307.461 258.906 C 308.596 259.034,309.094 258.979,308.754 258.763 C 307.796 258.157,305.051 258.372,303.768 259.154 M309.800 259.476 C 310.020 259.682,311.190 260.622,312.400 261.565 L 314.600 263.279 312.810 261.606 C 311.826 260.685,310.656 259.745,310.210 259.517 C 309.765 259.289,309.580 259.271,309.800 259.476 M298.464 263.526 C 298.348 265.932,299.606 267.061,301.200 265.982 C 301.653 265.675,301.547 265.634,300.770 265.814 C 299.508 266.105,298.924 265.482,298.697 263.598 L 298.528 262.200 298.464 263.526 M333.665 264.187 C 331.699 265.264,331.042 265.787,332.212 265.344 C 333.225 264.961,335.600 263.570,335.600 263.360 C 335.600 263.129,335.572 263.141,333.665 264.187 M321.700 266.676 C 322.085 266.776,322.715 266.776,323.100 266.676 C 323.485 266.575,323.170 266.493,322.400 266.493 C 321.630 266.493,321.315 266.575,321.700 266.676 M325.200 266.800 C 324.138 267.024,324.041 267.102,324.800 267.124 C 325.350 267.141,326.520 267.005,327.400 266.823 C 328.734 266.547,328.800 266.493,327.800 266.499 C 327.140 266.502,325.970 266.638,325.200 266.800 " stroke="none" fill="#b2adfc" fill-rule="evenodd"></path><path id="path4" d="M56.400 157.965 C 55.569 158.119,56.627 158.221,59.000 158.217 C 61.200 158.213,62.460 158.094,61.800 157.953 C 60.283 157.626,58.200 157.631,56.400 157.965 M121.117 163.600 C 120.970 166.570,120.644 169.720,120.391 170.600 C 120.139 171.480,119.742 172.920,119.509 173.800 C 118.753 176.653,117.685 179.816,116.404 183.000 C 114.383 188.019,109.709 197.330,107.548 200.641 C 106.485 202.269,105.701 203.600,105.805 203.600 C 106.188 203.600,108.256 201.216,108.818 200.126 C 109.137 199.507,109.494 198.910,109.610 198.800 C 110.043 198.391,114.005 190.181,114.003 189.700 C 114.001 189.425,114.180 189.200,114.400 189.200 C 114.620 189.200,114.800 188.840,114.800 188.400 C 114.800 187.960,114.980 187.600,115.200 187.600 C 115.420 187.600,115.600 187.328,115.600 186.995 C 115.600 186.662,115.759 186.077,115.953 185.695 C 116.148 185.313,116.508 184.505,116.753 183.900 C 116.999 183.295,117.401 182.305,117.647 181.700 C 117.892 181.095,118.252 180.287,118.447 179.905 C 118.641 179.523,118.800 178.859,118.800 178.429 C 118.800 177.999,118.980 177.536,119.200 177.400 C 119.420 177.264,119.600 176.634,119.600 176.000 C 119.600 175.366,119.780 174.736,120.000 174.600 C 120.220 174.464,120.400 173.834,120.400 173.200 C 120.400 172.566,120.580 171.936,120.800 171.800 C 121.020 171.664,121.200 170.789,121.200 169.856 C 121.200 168.923,121.360 167.989,121.556 167.780 C 121.754 167.569,121.795 165.354,121.648 162.800 L 121.384 158.200 121.117 163.600 M43.470 163.662 L 41.400 165.725 43.600 163.790 C 44.810 162.725,45.875 161.797,45.967 161.727 C 46.058 161.657,46.000 161.600,45.837 161.600 C 45.674 161.600,44.609 162.528,43.470 163.662 M54.400 162.020 C 53.726 162.249,54.051 162.284,55.400 162.128 C 56.500 162.001,57.475 161.831,57.567 161.749 C 57.882 161.468,55.399 161.680,54.400 162.020 M61.600 162.000 C 62.968 162.438,64.019 162.438,63.000 162.000 C 62.560 161.811,61.840 161.662,61.400 161.668 C 60.757 161.677,60.796 161.743,61.600 162.000 M71.600 161.725 C 71.600 161.824,72.261 162.409,73.068 163.025 C 73.876 163.641,74.411 163.941,74.256 163.691 C 73.940 163.179,71.600 161.447,71.600 161.725 M86.144 161.909 C 86.460 162.421,88.800 164.153,88.800 163.875 C 88.800 163.776,88.139 163.191,87.332 162.575 C 86.524 161.959,85.989 161.659,86.144 161.909 M97.600 162.283 C 108.128 162.565,117.508 162.574,117.339 162.300 C 117.236 162.135,111.808 162.038,105.276 162.085 C 98.744 162.132,95.290 162.221,97.600 162.283 M48.954 164.074 C 48.319 164.555,47.725 165.005,47.633 165.074 C 47.542 165.143,47.562 165.295,47.678 165.412 C 47.795 165.528,48.474 165.078,49.187 164.412 C 50.707 162.993,50.595 162.831,48.954 164.074 M95.843 165.669 C 98.232 168.249,101.565 174.104,101.628 175.830 C 101.644 176.254,101.809 176.960,101.996 177.400 C 102.208 177.900,102.254 177.374,102.116 176.000 C 101.996 174.790,101.740 173.629,101.548 173.420 C 101.357 173.211,101.200 172.731,101.200 172.353 C 101.200 171.976,101.065 171.607,100.900 171.533 C 100.735 171.460,100.162 170.535,99.626 169.479 C 98.558 167.370,97.783 166.494,95.152 164.415 C 93.548 163.147,93.606 163.253,95.843 165.669 M76.000 165.400 C 76.746 166.170,77.447 166.800,77.557 166.800 C 77.667 166.800,77.146 166.170,76.400 165.400 C 75.654 164.630,74.953 164.000,74.843 164.000 C 74.733 164.000,75.254 164.630,76.000 165.400 M91.209 166.162 C 92.204 167.283,93.524 168.830,94.141 169.600 C 94.759 170.370,95.081 170.627,94.857 170.172 C 94.632 169.716,93.313 168.169,91.924 166.734 C 90.536 165.298,90.214 165.041,91.209 166.162 M138.500 164.676 C 138.885 164.776,139.515 164.776,139.900 164.676 C 140.285 164.575,139.970 164.493,139.200 164.493 C 138.430 164.493,138.115 164.575,138.500 164.676 M69.600 164.956 C 69.600 165.119,70.950 166.619,72.600 168.291 C 74.250 169.962,75.600 171.571,75.600 171.865 C 75.600 172.159,75.759 172.400,75.953 172.400 C 76.148 172.400,76.407 172.715,76.529 173.100 C 76.651 173.485,77.011 174.250,77.328 174.800 C 77.646 175.350,78.083 176.250,78.300 176.800 C 78.992 178.560,79.683 180.180,80.047 180.895 C 80.241 181.277,80.400 181.941,80.400 182.371 C 80.400 182.801,80.580 183.264,80.800 183.400 C 81.020 183.536,81.200 184.076,81.200 184.600 C 81.200 185.124,81.380 185.664,81.600 185.800 C 81.820 185.936,82.000 186.476,82.000 187.000 C 82.000 187.524,82.180 188.064,82.400 188.200 C 82.620 188.336,82.800 188.966,82.800 189.600 C 82.800 190.234,82.980 190.864,83.200 191.000 C 83.420 191.136,83.600 191.676,83.600 192.200 C 83.600 192.724,83.780 193.264,84.000 193.400 C 84.220 193.536,84.400 194.076,84.400 194.600 C 84.400 195.124,84.580 195.664,84.800 195.800 C 85.020 195.936,85.200 196.566,85.200 197.200 C 85.200 197.834,85.380 198.464,85.600 198.600 C 85.820 198.736,86.000 199.366,86.000 200.000 C 86.000 200.634,86.180 201.264,86.400 201.400 C 86.620 201.536,86.800 202.256,86.800 203.000 C 86.800 203.744,86.980 204.464,87.200 204.600 C 87.420 204.736,87.600 205.546,87.600 206.400 C 87.600 207.254,87.780 208.064,88.000 208.200 C 88.220 208.336,88.400 209.506,88.400 210.800 C 88.400 212.094,88.580 213.264,88.800 213.400 C 89.020 213.536,89.200 215.095,89.200 216.864 L 89.200 220.080 87.856 218.740 C 86.448 217.335,83.522 215.600,82.562 215.600 C 82.253 215.600,82.000 215.420,82.000 215.200 C 82.000 214.980,81.561 214.800,81.024 214.800 C 80.487 214.800,79.936 214.620,79.800 214.400 C 79.664 214.180,79.124 214.000,78.600 214.000 C 78.076 214.000,77.536 213.820,77.400 213.600 C 77.264 213.380,76.756 213.200,76.270 213.200 C 75.046 213.200,70.356 210.891,69.473 209.854 L 68.746 209.000 69.190 209.906 C 69.954 211.463,72.898 213.031,77.952 214.571 C 84.637 216.608,88.811 219.597,90.000 223.199 C 90.604 225.032,91.495 226.022,91.748 225.145 C 91.835 224.845,92.140 223.821,92.427 222.869 C 92.983 221.022,92.669 220.420,91.143 220.406 C 90.288 220.398,90.068 219.757,89.800 216.495 C 89.202 209.213,87.892 203.210,84.805 193.600 C 83.992 191.070,82.749 187.200,82.043 185.000 C 79.115 175.884,77.117 171.984,73.496 168.312 C 71.174 165.958,69.600 164.602,69.600 164.956 M116.873 165.287 C 116.613 165.547,116.400 166.253,116.400 166.856 C 116.400 167.459,116.220 168.064,116.000 168.200 C 115.780 168.336,115.600 169.146,115.600 170.000 C 115.600 170.854,115.420 171.664,115.200 171.800 C 114.980 171.936,114.800 172.566,114.800 173.200 C 114.800 173.834,114.620 174.464,114.400 174.600 C 114.180 174.736,114.000 175.199,114.000 175.629 C 114.000 176.059,113.820 176.768,113.600 177.205 C 113.380 177.642,113.020 178.358,112.800 178.795 C 112.580 179.232,112.400 179.864,112.400 180.200 C 112.400 180.536,112.243 181.123,112.050 181.505 C 110.552 184.480,110.000 185.753,110.000 186.238 C 110.000 186.547,109.820 186.800,109.600 186.800 C 109.380 186.800,109.200 187.160,109.200 187.600 C 109.200 188.040,109.020 188.400,108.800 188.400 C 108.580 188.400,108.400 188.760,108.400 189.200 C 108.400 189.640,108.220 190.000,108.000 190.000 C 107.780 190.000,107.612 190.495,107.627 191.100 C 107.651 192.056,110.855 186.085,112.403 182.200 C 114.210 177.665,115.687 173.009,116.398 169.600 C 116.650 168.390,117.021 166.872,117.221 166.226 C 117.641 164.876,117.544 164.616,116.873 165.287 M280.236 165.542 C 280.119 165.730,280.467 165.800,281.007 165.697 C 281.623 165.579,282.051 165.713,282.153 166.054 C 282.242 166.354,282.504 167.230,282.735 168.000 L 283.155 169.400 282.925 167.800 C 282.601 165.543,281.043 164.235,280.236 165.542 M178.491 173.251 C 178.409 180.318,178.470 181.157,179.100 181.651 C 179.718 182.135,179.742 182.126,179.309 181.570 C 178.969 181.134,178.781 178.540,178.700 173.170 L 178.582 165.400 178.491 173.251 M40.662 166.731 C 39.795 167.690,39.818 167.869,41.000 169.273 C 41.550 169.927,42.000 170.295,42.000 170.093 C 42.000 169.890,41.640 169.398,41.200 169.000 C 40.227 168.120,40.201 167.683,41.062 166.731 C 41.426 166.329,41.634 166.000,41.524 166.000 C 41.414 166.000,41.026 166.329,40.662 166.731 M53.045 166.872 C 53.156 167.053,53.491 167.200,53.788 167.200 C 54.966 167.200,58.389 172.767,58.406 174.712 C 58.409 175.090,58.592 175.670,58.812 176.000 C 59.093 176.422,59.141 176.066,58.974 174.800 C 58.733 172.978,57.425 169.843,56.500 168.869 C 56.222 168.577,55.821 168.013,55.608 167.616 C 55.396 167.219,54.687 166.815,54.032 166.719 C 53.378 166.623,52.933 166.692,53.045 166.872 M78.394 168.203 C 79.987 170.121,80.121 170.245,79.686 169.396 C 79.459 168.953,78.852 168.234,78.337 167.798 C 77.433 167.034,77.435 167.048,78.394 168.203 M128.975 168.500 L 127.800 169.800 129.100 168.625 C 130.312 167.530,130.584 167.200,130.275 167.200 C 130.206 167.200,129.621 167.785,128.975 168.500 M148.000 167.325 C 148.000 167.394,148.585 167.979,149.300 168.625 L 150.600 169.800 149.425 168.500 C 148.330 167.288,148.000 167.016,148.000 167.325 M48.671 169.478 C 49.150 169.572,49.757 169.907,50.020 170.224 C 50.283 170.541,50.654 170.800,50.844 170.800 C 51.420 170.800,52.847 172.125,53.645 173.400 C 54.059 174.060,54.398 174.410,54.399 174.179 C 54.404 172.514,50.366 169.120,48.540 169.254 C 47.959 169.297,47.987 169.345,48.671 169.478 M45.800 170.800 C 44.466 172.193,44.158 172.248,43.031 171.300 C 42.201 170.601,42.201 170.601,42.962 171.500 C 43.987 172.711,44.409 172.641,46.000 171.000 C 46.746 170.230,47.265 169.600,47.153 169.600 C 47.041 169.600,46.432 170.140,45.800 170.800 M283.536 170.204 C 283.953 171.064,285.021 172.092,286.000 172.574 C 286.330 172.736,286.170 172.519,285.644 172.091 C 285.118 171.662,284.341 170.882,283.917 170.356 C 283.332 169.630,283.240 169.594,283.536 170.204 M81.099 172.368 C 81.703 173.450,82.265 174.268,82.347 174.186 C 82.521 174.012,80.457 170.400,80.183 170.400 C 80.083 170.400,80.495 171.286,81.099 172.368 M95.800 172.400 C 96.141 173.060,96.511 173.600,96.621 173.600 C 96.731 173.600,96.541 173.060,96.200 172.400 C 95.859 171.740,95.489 171.200,95.379 171.200 C 95.269 171.200,95.459 171.740,95.800 172.400 M125.856 174.084 C 125.721 174.588,125.628 175.450,125.649 176.000 C 125.672 176.589,125.831 176.271,126.036 175.225 C 126.403 173.352,126.273 172.527,125.856 174.084 M152.200 177.200 C 152.200 179.138,152.332 180.516,152.494 180.262 C 152.656 180.008,152.788 178.630,152.788 177.200 C 152.788 175.770,152.656 174.392,152.494 174.138 C 152.332 173.884,152.200 175.262,152.200 177.200 M167.400 174.000 C 166.381 174.438,167.432 174.438,168.800 174.000 C 169.604 173.743,169.643 173.677,169.000 173.668 C 168.560 173.662,167.840 173.811,167.400 174.000 M290.000 174.000 C 290.550 174.176,291.360 174.320,291.800 174.320 C 292.433 174.320,292.392 174.254,291.600 174.000 C 291.050 173.824,290.240 173.680,289.800 173.680 C 289.167 173.680,289.208 173.746,290.000 174.000 M162.600 174.819 C 162.042 175.071,162.285 175.107,163.400 174.938 C 164.280 174.804,165.075 174.628,165.167 174.547 C 165.510 174.244,163.368 174.471,162.600 174.819 M293.633 174.547 C 293.725 174.628,294.520 174.804,295.400 174.938 C 296.515 175.107,296.758 175.071,296.200 174.819 C 295.432 174.471,293.290 174.244,293.633 174.547 M157.570 177.100 L 156.600 178.200 157.800 177.200 C 158.460 176.650,159.075 176.155,159.167 176.100 C 159.258 176.045,159.155 176.000,158.936 176.000 C 158.718 176.000,158.103 176.495,157.570 177.100 M300.934 177.307 C 301.630 178.026,302.277 178.564,302.371 178.503 C 302.599 178.354,300.331 176.000,299.959 176.000 C 299.799 176.000,300.238 176.588,300.934 177.307 M83.448 177.000 C 85.060 181.368,89.430 194.714,90.456 198.400 C 90.670 199.170,91.028 200.430,91.251 201.200 C 91.819 203.157,92.445 206.245,92.745 208.568 C 93.036 210.816,93.614 211.249,94.506 209.887 C 95.089 208.997,95.076 208.946,94.262 208.972 C 93.521 208.996,93.382 208.748,93.275 207.200 C 93.206 206.210,92.981 205.229,92.775 205.020 C 92.569 204.811,92.400 204.144,92.400 203.539 C 92.400 202.933,92.239 202.024,92.042 201.519 C 91.845 201.013,91.464 199.790,91.196 198.800 C 90.928 197.810,90.572 196.640,90.406 196.200 C 90.239 195.760,88.889 191.710,87.406 187.200 C 85.923 182.690,84.359 178.370,83.931 177.600 C 83.503 176.830,83.286 176.560,83.448 177.000 M125.628 178.633 C 125.644 179.275,125.816 180.160,126.010 180.600 C 126.247 181.134,126.286 180.802,126.127 179.600 C 125.846 177.480,125.588 176.980,125.628 178.633 M186.100 179.476 C 186.485 179.576,187.115 179.576,187.500 179.476 C 187.885 179.375,187.570 179.293,186.800 179.293 C 186.030 179.293,185.715 179.375,186.100 179.476 M189.233 179.345 C 189.325 179.425,190.660 179.589,192.200 179.709 C 193.898 179.841,194.528 179.802,193.800 179.611 C 192.584 179.291,188.927 179.078,189.233 179.345 M249.400 179.606 C 248.697 179.788,249.442 179.828,251.200 179.703 C 252.850 179.585,254.275 179.424,254.367 179.344 C 254.675 179.078,250.613 179.291,249.400 179.606 M256.033 179.345 C 256.125 179.424,257.550 179.583,259.200 179.697 C 260.893 179.814,261.764 179.769,261.200 179.592 C 260.208 179.282,255.713 179.067,256.033 179.345 M302.658 180.400 C 302.975 182.125,303.202 182.451,303.194 181.167 C 303.191 180.635,303.011 179.930,302.794 179.600 C 302.518 179.178,302.477 179.415,302.658 180.400 M312.600 179.610 C 312.066 179.847,312.398 179.886,313.600 179.727 C 314.590 179.596,315.475 179.424,315.567 179.344 C 315.914 179.043,313.364 179.272,312.600 179.610 M318.433 179.347 C 318.525 179.428,319.320 179.604,320.200 179.738 C 321.315 179.907,321.558 179.871,321.000 179.619 C 320.232 179.271,318.090 179.044,318.433 179.347 M245.400 180.400 C 244.896 180.617,244.822 180.744,245.200 180.744 C 245.530 180.744,246.160 180.589,246.600 180.400 C 247.104 180.183,247.178 180.056,246.800 180.056 C 246.470 180.056,245.840 180.211,245.400 180.400 M332.000 180.332 C 332.000 180.515,332.476 180.919,333.057 181.231 C 333.639 181.542,335.289 183.057,336.724 184.598 C 338.159 186.139,338.783 186.680,338.111 185.800 C 336.086 183.147,332.000 179.492,332.000 180.332 M99.256 180.800 C 99.256 181.130,99.411 181.760,99.600 182.200 C 99.817 182.704,99.944 182.778,99.944 182.400 C 99.944 182.070,99.789 181.440,99.600 181.000 C 99.383 180.496,99.256 180.422,99.256 180.800 M103.462 182.600 C 103.596 183.480,103.772 184.275,103.853 184.367 C 104.156 184.710,103.929 182.568,103.581 181.800 C 103.329 181.242,103.293 181.485,103.462 182.600 M151.078 183.005 C 150.712 183.772,150.495 184.400,150.596 184.400 C 150.870 184.400,152.084 181.951,151.901 181.768 C 151.814 181.681,151.444 182.238,151.078 183.005 M155.796 209.600 L 155.800 237.400 157.100 237.525 C 157.815 237.594,158.400 237.490,158.400 237.295 C 158.400 237.099,157.861 237.018,157.203 237.114 L 156.005 237.290 155.899 209.545 L 155.792 181.800 155.796 209.600 M242.200 183.619 C 241.642 183.871,241.885 183.907,243.000 183.738 C 243.880 183.604,244.675 183.428,244.767 183.347 C 245.110 183.044,242.968 183.271,242.200 183.619 M363.444 184.200 C 363.773 185.671,364.002 185.990,363.994 184.967 C 363.991 184.545,363.805 183.930,363.582 183.600 C 363.285 183.162,363.248 183.324,363.444 184.200 M100.028 185.233 C 100.044 185.765,100.219 186.560,100.419 187.000 C 100.671 187.558,100.707 187.315,100.538 186.200 C 100.255 184.343,99.987 183.836,100.028 185.233 M128.000 184.925 C 128.000 184.994,128.585 185.579,129.300 186.225 L 130.600 187.400 129.425 186.100 C 128.330 184.888,128.000 184.616,128.000 184.925 M148.975 186.100 L 147.800 187.400 149.100 186.225 C 149.815 185.579,150.400 184.994,150.400 184.925 C 150.400 184.616,150.070 184.888,148.975 186.100 M211.000 188.000 C 212.306 189.320,213.465 190.400,213.575 190.400 C 213.685 190.400,212.706 189.320,211.400 188.000 C 210.094 186.680,208.935 185.600,208.825 185.600 C 208.715 185.600,209.694 186.680,211.000 188.000 M232.774 186.909 C 231.081 188.442,227.200 193.198,227.200 193.740 C 227.200 193.949,227.761 193.328,228.447 192.360 C 229.133 191.392,230.793 189.475,232.135 188.100 C 234.766 185.407,235.079 184.823,232.774 186.909 M104.200 191.000 C 104.200 193.776,104.317 195.632,104.460 195.124 C 104.603 194.616,104.720 192.760,104.720 191.000 C 104.720 189.240,104.603 187.384,104.460 186.876 C 104.317 186.368,104.200 188.224,104.200 191.000 M330.278 187.395 C 330.644 188.162,331.014 188.719,331.101 188.632 C 331.284 188.449,330.070 186.000,329.796 186.000 C 329.695 186.000,329.912 186.628,330.278 187.395 M188.800 186.525 C 188.800 186.594,189.385 187.179,190.100 187.825 L 191.400 189.000 190.225 187.700 C 189.130 186.488,188.800 186.216,188.800 186.525 M364.154 191.600 C 364.154 194.350,364.218 195.475,364.296 194.100 C 364.374 192.725,364.374 190.475,364.296 189.100 C 364.218 187.725,364.154 188.850,364.154 191.600 M62.456 188.000 C 62.456 188.330,62.611 188.960,62.800 189.400 C 63.017 189.904,63.144 189.978,63.144 189.600 C 63.144 189.270,62.989 188.640,62.800 188.200 C 62.583 187.696,62.456 187.622,62.456 188.000 M178.901 189.400 C 178.905 190.280,178.987 190.593,179.083 190.095 C 179.179 189.598,179.175 188.878,179.075 188.495 C 178.975 188.113,178.896 188.520,178.901 189.400 M237.000 189.600 C 236.846 190.510,236.804 191.338,236.907 191.440 C 237.010 191.543,237.213 190.877,237.360 189.960 C 237.507 189.043,237.548 188.215,237.453 188.120 C 237.358 188.024,237.154 188.690,237.000 189.600 M142.800 189.200 C 141.976 189.464,141.941 189.526,142.600 189.554 C 143.040 189.573,143.670 189.413,144.000 189.200 C 144.701 188.747,144.214 188.747,142.800 189.200 M275.301 190.600 C 275.305 191.480,275.387 191.793,275.483 191.295 C 275.579 190.798,275.575 190.078,275.475 189.695 C 275.375 189.313,275.296 189.720,275.301 190.600 M304.000 190.048 C 304.550 190.267,305.458 190.841,306.019 191.323 C 306.579 191.805,306.446 191.615,305.724 190.900 C 305.002 190.185,304.094 189.611,303.706 189.625 C 303.206 189.643,303.292 189.767,304.000 190.048 M178.492 208.935 L 178.400 226.870 180.500 228.950 C 182.485 230.916,182.502 230.925,180.800 229.100 L 179.000 227.170 178.792 209.085 L 178.584 191.000 178.492 208.935 M193.400 192.800 C 193.741 193.460,194.111 194.000,194.221 194.000 C 194.331 194.000,194.141 193.460,193.800 192.800 C 193.459 192.140,193.089 191.600,192.979 191.600 C 192.869 191.600,193.059 192.140,193.400 192.800 M136.800 192.400 C 137.350 192.576,138.160 192.720,138.600 192.720 C 139.233 192.720,139.192 192.654,138.400 192.400 C 137.850 192.224,137.040 192.080,136.600 192.080 C 135.967 192.080,136.008 192.146,136.800 192.400 M332.200 198.460 C 332.200 201.815,332.314 204.029,332.453 203.380 C 332.786 201.823,332.792 194.452,332.460 193.280 C 332.317 192.773,332.200 195.105,332.200 198.460 M60.056 193.200 C 60.056 193.530,60.211 194.160,60.400 194.600 C 60.617 195.104,60.744 195.178,60.744 194.800 C 60.744 194.470,60.589 193.840,60.400 193.400 C 60.183 192.896,60.056 192.822,60.056 193.200 M140.833 192.947 C 140.925 193.028,141.720 193.204,142.600 193.338 C 143.715 193.507,143.958 193.471,143.400 193.219 C 142.632 192.871,140.490 192.644,140.833 192.947 M106.200 195.200 C 105.859 195.860,105.669 196.400,105.779 196.400 C 105.889 196.400,106.259 195.860,106.600 195.200 C 106.941 194.540,107.131 194.000,107.021 194.000 C 106.911 194.000,106.541 194.540,106.200 195.200 M100.229 195.429 C 100.081 196.015,100.038 196.572,100.132 196.666 C 100.227 196.760,100.424 196.358,100.571 195.771 C 100.719 195.185,100.762 194.628,100.668 194.534 C 100.573 194.440,100.376 194.842,100.229 195.429 M60.856 196.000 C 60.856 196.330,61.011 196.960,61.200 197.400 C 61.417 197.904,61.544 197.978,61.544 197.600 C 61.544 197.270,61.389 196.640,61.200 196.200 C 60.983 195.696,60.856 195.622,60.856 196.000 M149.228 196.200 C 149.228 196.420,149.486 197.050,149.800 197.600 C 150.114 198.150,150.372 198.420,150.372 198.200 C 150.372 197.980,150.114 197.350,149.800 196.800 C 149.486 196.250,149.228 195.980,149.228 196.200 M256.909 197.600 C 256.909 198.590,256.987 198.995,257.082 198.500 C 257.178 198.005,257.178 197.195,257.082 196.700 C 256.987 196.205,256.909 196.610,256.909 197.600 M104.670 197.700 C 104.071 198.558,104.040 198.563,103.996 197.800 C 103.955 197.091,103.906 197.108,103.566 197.958 C 102.872 199.692,104.271 199.336,105.236 197.533 C 105.783 196.511,105.426 196.616,104.670 197.700 M270.000 200.091 C 268.570 201.441,267.940 202.168,268.600 201.706 C 269.761 200.894,273.148 197.582,272.781 197.618 C 272.682 197.627,271.430 198.740,270.000 200.091 M99.429 199.029 C 99.281 199.615,99.238 200.172,99.332 200.266 C 99.427 200.360,99.624 199.958,99.771 199.371 C 99.919 198.785,99.962 198.228,99.868 198.134 C 99.773 198.040,99.576 198.442,99.429 199.029 M363.440 200.840 C 363.293 201.757,363.252 202.585,363.347 202.680 C 363.442 202.776,363.646 202.110,363.800 201.200 C 363.954 200.290,363.996 199.462,363.893 199.360 C 363.790 199.257,363.587 199.923,363.440 200.840 M150.496 218.294 L 150.400 237.188 138.900 237.300 L 127.400 237.413 138.913 237.506 C 147.824 237.579,150.468 237.487,150.617 237.100 C 150.722 236.825,150.760 228.230,150.700 218.000 L 150.592 199.400 150.496 218.294 M218.468 201.200 C 218.488 202.239,219.118 203.946,219.132 203.000 C 219.138 202.560,218.989 201.840,218.800 201.400 C 218.589 200.910,218.461 200.832,218.468 201.200 M254.626 203.500 C 253.762 204.605,253.693 204.790,254.363 204.204 C 255.165 203.504,256.223 202.000,255.914 202.000 C 255.851 202.000,255.272 202.675,254.626 203.500 M104.600 205.200 C 104.259 205.860,104.069 206.400,104.179 206.400 C 104.289 206.400,104.659 205.860,105.000 205.200 C 105.341 204.540,105.531 204.000,105.421 204.000 C 105.311 204.000,104.941 204.540,104.600 205.200 M263.500 204.629 C 262.005 205.440,262.096 205.778,263.600 205.000 C 264.260 204.659,264.800 204.294,264.800 204.190 C 264.800 203.932,264.757 203.947,263.500 204.629 M223.709 206.000 C 223.709 206.990,223.787 207.395,223.882 206.900 C 223.978 206.405,223.978 205.595,223.882 205.100 C 223.787 204.605,223.709 205.010,223.709 206.000 M346.468 205.400 C 346.462 205.840,346.611 206.560,346.800 207.000 C 347.238 208.019,347.238 206.968,346.800 205.600 C 346.543 204.796,346.477 204.757,346.468 205.400 M198.468 206.200 C 198.462 206.640,198.611 207.360,198.800 207.800 C 199.238 208.819,199.238 207.768,198.800 206.400 C 198.543 205.596,198.477 205.557,198.468 206.200 M219.337 208.600 C 219.339 210.360,219.409 211.030,219.493 210.089 C 219.578 209.149,219.577 207.709,219.491 206.889 C 219.405 206.070,219.336 206.840,219.337 208.600 M331.418 208.618 C 331.265 209.639,331.222 210.555,331.322 210.655 C 331.422 210.755,331.629 210.002,331.782 208.982 C 331.935 207.961,331.978 207.045,331.878 206.945 C 331.778 206.845,331.571 207.598,331.418 208.618 M361.850 209.650 C 361.709 210.353,361.669 211.002,361.759 211.092 C 361.850 211.183,362.048 210.691,362.200 210.000 C 362.352 209.309,362.393 208.659,362.291 208.558 C 362.189 208.456,361.991 208.947,361.850 209.650 M244.388 209.345 C 244.580 209.538,245.229 209.513,245.865 209.288 C 246.985 208.891,246.981 208.887,245.523 208.943 C 244.699 208.975,244.198 209.152,244.388 209.345 M199.280 209.800 C 199.280 210.240,199.424 211.050,199.600 211.600 C 199.854 212.392,199.920 212.433,199.920 211.800 C 199.920 211.360,199.776 210.550,199.600 210.000 C 199.346 209.208,199.280 209.167,199.280 209.800 M101.400 210.800 C 101.059 211.460,100.869 212.000,100.979 212.000 C 101.089 212.000,101.459 211.460,101.800 210.800 C 102.141 210.140,102.331 209.600,102.221 209.600 C 102.111 209.600,101.741 210.140,101.400 210.800 M223.709 211.600 C 223.709 212.590,223.787 212.995,223.882 212.500 C 223.978 212.005,223.978 211.195,223.882 210.700 C 223.787 210.205,223.709 210.610,223.709 211.600 M307.701 211.400 C 307.705 212.280,307.787 212.593,307.883 212.095 C 307.979 211.598,307.975 210.878,307.875 210.495 C 307.775 210.113,307.696 210.520,307.701 211.400 M347.693 212.400 C 347.693 213.170,347.775 213.485,347.876 213.100 C 347.976 212.715,347.976 212.085,347.876 211.700 C 347.775 211.315,347.693 211.630,347.693 212.400 M247.067 214.006 C 247.459 214.670,248.198 215.705,248.710 216.306 C 249.221 216.908,248.975 216.365,248.163 215.100 C 246.624 212.703,245.828 211.907,247.067 214.006 M218.846 213.667 C 218.821 214.034,218.696 214.664,218.570 215.067 C 218.352 215.762,218.363 215.763,218.797 215.087 C 219.048 214.696,219.173 214.066,219.073 213.687 C 218.911 213.068,218.888 213.066,218.846 213.667 M224.056 215.200 C 224.056 215.530,224.211 216.160,224.400 216.600 C 224.617 217.104,224.744 217.178,224.744 216.800 C 224.744 216.470,224.589 215.840,224.400 215.400 C 224.183 214.896,224.056 214.822,224.056 215.200 M69.600 215.396 C 69.600 215.670,72.049 216.884,72.232 216.701 C 72.319 216.614,71.762 216.244,70.995 215.878 C 70.228 215.512,69.600 215.295,69.600 215.396 M330.493 216.400 C 330.493 217.170,330.575 217.485,330.676 217.100 C 330.776 216.715,330.776 216.085,330.676 215.700 C 330.575 215.315,330.493 215.630,330.493 216.400 M307.701 217.400 C 307.705 218.280,307.787 218.593,307.883 218.095 C 307.979 217.598,307.975 216.878,307.875 216.495 C 307.775 216.113,307.696 216.520,307.701 217.400 M200.514 218.200 C 200.517 219.300,200.595 219.703,200.687 219.095 C 200.779 218.486,200.777 217.586,200.682 217.095 C 200.587 216.603,200.511 217.100,200.514 218.200 M74.912 217.996 C 75.303 218.248,77.024 218.959,78.735 219.577 C 83.858 221.427,85.111 222.297,86.535 225.000 C 86.883 225.660,87.169 226.020,87.170 225.800 C 87.180 223.502,83.259 220.495,78.047 218.804 C 76.811 218.403,75.440 217.954,75.000 217.807 C 74.272 217.564,74.264 217.580,74.912 217.996 M250.330 218.700 C 250.761 219.305,251.528 220.160,252.034 220.600 C 252.540 221.040,252.251 220.545,251.392 219.500 C 249.673 217.408,249.103 216.979,250.330 218.700 M308.056 220.400 C 308.056 220.730,308.211 221.360,308.400 221.800 C 308.617 222.304,308.744 222.378,308.744 222.000 C 308.744 221.670,308.589 221.040,308.400 220.600 C 308.183 220.096,308.056 220.022,308.056 220.400 M347.693 221.200 C 347.693 221.970,347.775 222.285,347.876 221.900 C 347.976 221.515,347.976 220.885,347.876 220.500 C 347.775 220.115,347.693 220.430,347.693 221.200 M215.800 222.000 C 215.459 222.660,215.269 223.200,215.379 223.200 C 215.489 223.200,215.859 222.660,216.200 222.000 C 216.541 221.340,216.731 220.800,216.621 220.800 C 216.511 220.800,216.141 221.340,215.800 222.000 M91.685 222.400 C 91.489 223.739,91.022 223.964,90.646 222.900 C 90.511 222.515,90.295 221.975,90.166 221.700 C 90.014 221.374,90.269 221.200,90.897 221.200 C 91.741 221.200,91.839 221.350,91.685 222.400 M253.200 221.864 C 253.200 222.082,253.695 222.697,254.300 223.230 L 255.400 224.200 254.400 223.000 C 253.850 222.340,253.355 221.725,253.300 221.633 C 253.245 221.542,253.200 221.645,253.200 221.864 M95.850 225.300 C 95.464 227.115,94.980 229.355,94.774 230.277 C 94.568 231.200,94.400 232.505,94.400 233.177 L 94.400 234.400 91.429 234.400 C 88.945 234.400,88.425 234.285,88.252 233.700 C 88.092 233.155,88.064 233.177,88.127 233.800 C 88.200 234.514,88.547 234.613,91.342 234.718 C 95.414 234.870,95.600 234.700,95.600 230.831 C 95.600 229.142,95.758 227.589,95.951 227.380 C 96.292 227.011,96.985 222.000,96.695 222.000 C 96.616 222.000,96.235 223.485,95.850 225.300 M200.255 224.655 C 200.113 225.686,200.074 226.608,200.169 226.702 C 200.263 226.796,200.465 226.039,200.618 225.018 C 200.771 223.998,200.810 223.076,200.704 222.971 C 200.598 222.865,200.396 223.623,200.255 224.655 M257.400 225.799 C 258.060 226.373,259.140 227.126,259.800 227.472 C 261.445 228.335,261.006 227.941,258.400 226.214 C 256.990 225.280,256.631 225.131,257.400 225.799 M346.629 225.829 C 346.481 226.415,346.438 226.972,346.532 227.066 C 346.627 227.160,346.824 226.758,346.971 226.171 C 347.119 225.585,347.162 225.028,347.068 224.934 C 346.973 224.840,346.776 225.242,346.629 225.829 M278.018 226.650 C 276.136 227.986,275.971 228.218,277.429 227.477 C 278.105 227.134,278.892 226.571,279.178 226.226 C 279.860 225.405,279.677 225.472,278.018 226.650 M310.400 226.528 C 310.400 226.701,310.850 227.505,311.400 228.314 C 311.950 229.123,312.400 229.644,312.400 229.472 C 312.400 229.299,311.950 228.495,311.400 227.686 C 310.850 226.877,310.400 226.356,310.400 226.528 M209.988 229.500 L 207.400 232.200 210.100 229.612 C 211.585 228.188,212.800 226.973,212.800 226.912 C 212.800 226.617,212.393 226.992,209.988 229.500 M330.468 227.400 C 330.462 227.840,330.611 228.560,330.800 229.000 C 331.238 230.019,331.238 228.968,330.800 227.600 C 330.543 226.796,330.477 226.757,330.468 227.400 M231.400 229.200 C 232.483 230.300,233.460 231.200,233.570 231.200 C 233.680 231.200,232.883 230.300,231.800 229.200 C 230.717 228.100,229.740 227.200,229.630 227.200 C 229.520 227.200,230.317 228.100,231.400 229.200 M199.078 229.005 C 198.712 229.772,198.495 230.400,198.596 230.400 C 198.870 230.400,200.084 227.951,199.901 227.768 C 199.814 227.681,199.444 228.238,199.078 229.005 M166.100 229.487 C 166.705 229.578,167.695 229.578,168.300 229.487 C 168.905 229.395,168.410 229.320,167.200 229.320 C 165.990 229.320,165.495 229.395,166.100 229.487 M343.377 231.437 C 342.264 232.627,341.474 233.600,341.622 233.600 C 341.932 233.600,345.600 229.743,345.600 229.417 C 345.600 229.074,345.513 229.153,343.377 231.437 M267.300 229.887 C 267.905 229.978,268.895 229.978,269.500 229.887 C 270.105 229.795,269.610 229.720,268.400 229.720 C 267.190 229.720,266.695 229.795,267.300 229.887 M161.178 231.900 L 159.800 233.400 161.300 232.022 C 162.696 230.738,162.984 230.400,162.678 230.400 C 162.612 230.400,161.937 231.075,161.178 231.900 M277.600 231.649 C 276.206 232.871,276.205 232.872,277.488 232.019 C 278.196 231.548,278.882 230.991,279.012 230.781 C 279.397 230.157,279.077 230.354,277.600 231.649 M197.158 231.713 C 196.584 232.201,195.774 232.828,195.358 233.106 C 194.913 233.402,195.096 233.378,195.801 233.047 C 196.461 232.736,197.344 232.103,197.763 231.641 C 198.745 230.556,198.479 230.587,197.158 231.713 M234.495 231.883 C 234.872 232.301,235.950 233.066,236.891 233.584 C 239.068 234.783,238.783 234.466,236.004 232.600 C 234.796 231.789,234.117 231.466,234.495 231.883 M347.944 232.024 L 347.000 232.847 348.155 232.141 L 349.311 231.435 349.080 234.218 C 348.904 236.344,348.933 236.622,349.202 235.400 C 350.037 231.606,349.641 230.544,347.944 232.024 M176.000 232.179 C 176.000 232.289,176.540 232.659,177.200 233.000 C 177.860 233.341,178.400 233.531,178.400 233.421 C 178.400 233.311,177.860 232.941,177.200 232.600 C 176.540 232.259,176.000 232.069,176.000 232.179 M315.695 232.683 C 316.072 233.101,317.150 233.866,318.091 234.384 C 320.268 235.583,319.983 235.266,317.204 233.400 C 315.996 232.589,315.317 232.266,315.695 232.683 M333.287 233.300 C 333.906 233.905,334.635 234.395,334.906 234.388 C 335.178 234.381,335.040 234.177,334.600 233.933 C 334.160 233.690,333.431 233.200,332.981 232.845 C 332.530 232.490,332.668 232.695,333.287 233.300 M274.600 233.600 C 273.940 234.037,273.580 234.392,273.800 234.388 C 274.201 234.382,276.376 232.823,276.000 232.812 C 275.890 232.808,275.260 233.163,274.600 233.600 M188.449 234.054 C 189.701 234.405,192.820 234.415,193.683 234.072 C 194.058 233.922,192.821 233.797,190.932 233.794 C 189.043 233.790,187.926 233.907,188.449 234.054 M181.600 235.396 C 181.600 235.670,184.049 236.884,184.232 236.701 C 184.319 236.614,183.762 236.244,182.995 235.878 C 182.228 235.512,181.600 235.295,181.600 235.396 M245.800 237.200 C 246.240 237.389,246.870 237.544,247.200 237.544 C 247.578 237.544,247.504 237.417,247.000 237.200 C 246.560 237.011,245.930 236.856,245.600 236.856 C 245.222 236.856,245.296 236.983,245.800 237.200 M264.800 237.200 C 263.996 237.457,263.957 237.523,264.600 237.532 C 265.040 237.538,265.760 237.389,266.200 237.200 C 267.219 236.762,266.168 236.762,264.800 237.200 M325.400 237.200 C 325.840 237.389,326.560 237.538,327.000 237.532 C 327.643 237.523,327.604 237.457,326.800 237.200 C 325.432 236.762,324.381 236.762,325.400 237.200 M337.800 237.200 C 337.296 237.417,337.222 237.544,337.600 237.544 C 337.930 237.544,338.560 237.389,339.000 237.200 C 339.504 236.983,339.578 236.856,339.200 236.856 C 338.870 236.856,338.240 237.011,337.800 237.200 M285.700 237.499 C 288.945 237.566,294.255 237.566,297.500 237.499 C 300.745 237.432,298.090 237.377,291.600 237.377 C 285.110 237.377,282.455 237.432,285.700 237.499 M250.223 238.053 C 250.870 238.192,253.380 238.305,255.800 238.305 C 258.220 238.305,260.730 238.192,261.377 238.053 C 262.025 237.914,259.515 237.800,255.800 237.800 C 252.085 237.800,249.575 237.914,250.223 238.053 M331.300 237.891 C 332.125 237.978,333.475 237.978,334.300 237.891 C 335.125 237.805,334.450 237.734,332.800 237.734 C 331.150 237.734,330.475 237.805,331.300 237.891 M189.900 238.289 C 190.615 238.378,191.785 238.378,192.500 238.289 C 193.215 238.201,192.630 238.128,191.200 238.128 C 189.770 238.128,189.185 238.201,189.900 238.289 M348.250 239.250 C 348.109 239.953,348.069 240.602,348.159 240.692 C 348.250 240.783,348.448 240.291,348.600 239.600 C 348.752 238.909,348.793 238.259,348.691 238.158 C 348.589 238.056,348.391 238.547,348.250 239.250 M313.900 239.889 C 314.615 239.978,315.785 239.978,316.500 239.889 C 317.215 239.801,316.630 239.728,315.200 239.728 C 313.770 239.728,313.185 239.801,313.900 239.889 M306.101 242.373 C 304.583 243.472,302.872 245.435,302.240 246.800 C 302.088 247.130,302.281 246.950,302.671 246.400 C 303.617 245.062,305.964 242.736,307.200 241.910 C 307.750 241.543,308.092 241.233,307.960 241.221 C 307.828 241.209,306.992 241.728,306.101 242.373 M328.600 246.800 C 329.459 247.680,330.252 248.400,330.362 248.400 C 330.472 248.400,329.859 247.680,329.000 246.800 C 328.141 245.920,327.348 245.200,327.238 245.200 C 327.128 245.200,327.741 245.920,328.600 246.800 M343.000 249.868 C 342.120 250.657,341.760 251.116,342.200 250.888 C 342.941 250.504,345.151 248.379,344.770 248.417 C 344.676 248.426,343.880 249.079,343.000 249.868 M336.800 252.406 C 336.378 252.682,336.615 252.723,337.600 252.542 C 339.325 252.225,339.651 251.998,338.367 252.006 C 337.835 252.009,337.130 252.189,336.800 252.406 M299.422 253.822 C 299.272 254.625,299.228 255.362,299.326 255.460 C 299.424 255.557,299.627 254.981,299.778 254.178 C 299.928 253.375,299.972 252.638,299.874 252.540 C 299.776 252.443,299.573 253.019,299.422 253.822 M340.581 258.100 L 339.000 259.800 340.700 258.219 C 342.281 256.748,342.584 256.400,342.281 256.400 C 342.216 256.400,341.451 257.165,340.581 258.100 M298.948 260.800 C 298.948 263.110,299.014 264.055,299.095 262.900 C 299.176 261.745,299.176 259.855,299.095 258.700 C 299.014 257.545,298.948 258.490,298.948 260.800 M302.769 259.569 C 302.126 260.212,301.605 260.977,301.612 261.269 C 301.619 261.561,301.818 261.440,302.055 261.000 C 302.292 260.560,302.961 259.796,303.543 259.302 C 304.124 258.808,304.451 258.403,304.269 258.402 C 304.087 258.401,303.412 258.926,302.769 259.569 M310.400 259.288 C 310.400 259.366,311.255 260.133,312.300 260.992 C 313.345 261.851,313.840 262.140,313.400 261.634 C 312.622 260.739,310.400 259.002,310.400 259.288 M337.375 261.300 L 336.200 262.600 337.500 261.425 C 338.215 260.779,338.800 260.194,338.800 260.125 C 338.800 259.816,338.470 260.088,337.375 261.300 M301.180 263.890 C 301.071 264.819,301.133 265.427,301.320 265.240 C 301.506 265.054,301.596 264.294,301.519 263.551 C 301.383 262.233,301.375 262.242,301.180 263.890 M315.585 263.571 C 316.347 264.247,317.142 264.800,317.352 264.800 C 317.562 264.800,317.658 264.748,317.567 264.684 C 317.475 264.620,316.680 264.067,315.800 263.455 L 314.200 262.342 315.585 263.571 M328.400 266.000 C 327.576 266.264,327.541 266.326,328.200 266.354 C 328.640 266.373,329.270 266.213,329.600 266.000 C 330.301 265.547,329.814 265.547,328.400 266.000 " stroke="none" fill="#948cfc" fill-rule="evenodd"></path></g></svg>